<svg width="134" height="40" viewBox="0 0 134 40" fill="none" xmlns="http://www.w3.org/2000/svg">
<g clip-path="url(#clip0_286_32501)">
<path d="M133.146 35.2203C133.146 35.7219 133.048 36.2185 132.856 36.6818C132.665 37.1451 132.384 37.566 132.03 37.9205C131.677 38.2749 131.257 38.556 130.795 38.7475C130.333 38.9391 129.837 39.0374 129.338 39.0369H4.69743C3.68721 39.038 2.71794 38.6365 2.00277 37.9208C1.28761 37.2051 0.885106 36.2337 0.883789 35.2203V4.78444C0.885105 3.77062 1.28745 2.79876 2.00247 2.08225C2.7175 1.36574 3.68676 0.963154 4.69743 0.962891H129.337C129.837 0.962891 130.332 1.06175 130.794 1.25381C131.256 1.44587 131.676 1.72738 132.03 2.08226C132.384 2.43713 132.664 2.85843 132.856 3.32207C133.047 3.78572 133.145 4.28264 133.145 4.78444L133.146 35.2203Z" fill="white"/>
<path d="M129.338 39.9249H4.69776C3.45329 39.9247 2.25975 39.4292 1.37904 38.5472C0.498322 37.6653 0.00236788 36.4689 0 35.2205L0 4.7856C0.00184101 3.53663 0.497468 2.33939 1.37816 1.45651C2.25884 0.57364 3.45267 0.0772261 4.69776 0.0761719L129.337 0.0761719C130.582 0.0777521 131.775 0.574335 132.656 1.4571C133.536 2.33986 134.032 3.53679 134.035 4.7856V35.2205C134.037 37.8154 131.926 39.9249 129.338 39.9249Z" fill="#A6A6A6"/>
<path d="M133.146 35.2203C133.146 35.7219 133.048 36.2185 132.856 36.6818C132.665 37.1451 132.384 37.566 132.03 37.9205C131.677 38.2749 131.257 38.556 130.795 38.7475C130.333 38.9391 129.837 39.0374 129.338 39.0369H4.69743C3.68721 39.038 2.71794 38.6365 2.00277 37.9208C1.28761 37.2051 0.885106 36.2337 0.883789 35.2203V4.78444C0.885105 3.77062 1.28745 2.79876 2.00247 2.08225C2.7175 1.36574 3.68676 0.963154 4.69743 0.962891H129.337C129.837 0.962891 130.332 1.06175 130.794 1.25381C131.256 1.44587 131.676 1.72738 132.03 2.08226C132.384 2.43713 132.664 2.85843 132.856 3.32207C133.047 3.78572 133.145 4.28264 133.145 4.78444L133.146 35.2203Z" fill="black"/>
<path d="M29.9291 19.7909C29.9003 16.5792 32.5507 15.0167 32.6718 14.944C31.1708 12.7487 28.8443 12.4487 28.0267 12.4248C26.0727 12.2186 24.1773 13.5977 23.182 13.5977C22.1667 13.5977 20.6339 12.4448 18.9819 12.4786C16.856 12.5115 14.8673 13.7462 13.7765 15.6634C11.5255 19.5727 13.2043 25.3175 15.361 28.4773C16.4398 30.0259 17.7004 31.7528 19.3504 31.692C20.9647 31.6263 21.5677 30.6607 23.5157 30.6607C25.4459 30.6607 26.0121 31.692 27.6949 31.6532C29.4274 31.6263 30.5182 30.0986 31.5592 28.5371C32.806 26.7644 33.3066 25.0165 33.3265 24.9268C33.2868 24.9129 29.9629 23.6394 29.9291 19.7909ZM26.7502 10.3461C27.6185 9.25698 28.2125 7.77519 28.0476 6.27148C26.791 6.32729 25.2194 7.14342 24.3144 8.20867C23.5138 9.14737 22.7985 10.686 22.9833 12.1329C24.3949 12.2385 25.8443 11.4184 26.7502 10.3461Z" fill="white"/>
<path d="M129.338 0.0761719H62.5767L88.7258 39.9249H129.338C130.582 39.9239 131.776 39.4278 132.657 38.5453C133.537 37.6629 134.033 36.4661 134.035 35.2175V4.7856C134.033 3.53671 133.538 2.33962 132.657 1.45681C131.776 0.573988 130.583 0.0774892 129.338 0.0761719Z" fill="url(#paint0_linear_286_32501)"/>
<path d="M53.3107 31.4694H51.0547L49.8189 27.5741H45.5235L44.3463 31.4694H42.1499L46.4066 18.208H49.0351L53.3107 31.4694ZM49.4464 25.9398L48.3288 22.477C48.2106 22.1233 47.9881 21.2902 47.6622 19.9788H47.6225C47.4914 20.5428 47.2818 21.3759 46.9947 22.477L45.896 25.9398H49.4464ZM64.236 26.5706C64.236 28.1969 63.7959 29.4824 62.9148 30.426C62.1261 31.2661 61.1456 31.6856 59.9763 31.6856C58.7137 31.6856 57.8058 31.2342 57.2544 30.3294V35.3467H55.1365V25.05C55.1365 24.0285 55.1097 22.9812 55.0581 21.907H56.9207L57.0389 23.4227H57.0786C57.7849 22.2807 58.8568 21.7097 60.2952 21.7097C61.4197 21.7097 62.3585 22.1551 63.1095 23.047C63.8595 23.9409 64.236 25.1147 64.236 26.5706ZM62.0784 26.6483C62.0784 25.7176 61.8698 24.9503 61.4505 24.3454C60.9926 23.7166 60.3777 23.4018 59.6068 23.4018C59.0843 23.4018 58.6094 23.5771 58.1853 23.9229C57.7601 24.2717 57.4819 24.7271 57.3518 25.2911C57.2937 25.502 57.2607 25.7191 57.2535 25.9378V27.5332C57.2535 28.2278 57.466 28.8147 57.8912 29.295C58.3164 29.7733 58.8687 30.0135 59.5482 30.0135C60.3459 30.0135 60.9668 29.7036 61.4108 29.0887C61.8559 28.4719 62.0784 27.6588 62.0784 26.6483ZM75.2001 26.5706C75.2001 28.1969 74.76 29.4824 73.8789 30.426C73.0891 31.2661 72.1097 31.6856 70.9394 31.6856C69.6768 31.6856 68.7689 31.2342 68.2175 30.3294V35.3467H66.0996V25.05C66.0996 24.0285 66.0728 22.9812 66.0211 21.907H67.8838L68.002 23.4227H68.0417C68.747 22.2807 69.8189 21.7097 71.2583 21.7097C72.3818 21.7097 73.3206 22.1551 74.0736 23.047C74.8226 23.9409 75.2001 25.1147 75.2001 26.5706ZM73.0415 26.6483C73.0415 25.7176 72.8319 24.9503 72.4126 24.3454C71.9547 23.7166 71.3418 23.4018 70.5709 23.4018C70.0484 23.4018 69.5735 23.5771 69.1474 23.9229C68.7222 24.2717 68.445 24.7271 68.3149 25.2911C68.2503 25.5542 68.2156 25.7684 68.2156 25.9378V27.5332C68.2156 28.2278 68.4291 28.8147 68.8523 29.295C69.2775 29.7723 69.8298 30.0135 70.5113 30.0135C71.31 30.0135 71.9309 29.7036 72.3739 29.0887C72.8189 28.4719 73.0415 27.6588 73.0415 26.6483ZM87.4586 27.7495C87.4586 28.8785 87.0652 29.7962 86.2834 30.5048C85.4231 31.278 84.2221 31.6657 82.6823 31.6657C81.2598 31.6657 80.1194 31.3906 79.2591 30.8396L79.7489 29.0688C80.6777 29.6209 81.6979 29.8959 82.8085 29.8959C83.6072 29.8959 84.2281 29.7145 84.6711 29.3548C85.1152 28.9941 85.3397 28.5118 85.3397 27.9099C85.3397 27.3708 85.1539 26.9194 84.7893 26.5517C84.4228 26.185 83.8168 25.8432 82.9655 25.5293C80.6509 24.6633 79.4926 23.3968 79.4926 21.7306C79.4926 20.6425 79.9018 19.7516 80.7184 19.055C81.535 18.3595 82.6178 18.0117 83.9648 18.0117C85.1678 18.0117 86.1701 18.222 86.9659 18.6415L86.4344 20.3734C85.6854 19.9668 84.84 19.7636 83.8943 19.7636C83.1473 19.7636 82.5612 19.9479 82.1419 20.3146C81.7893 20.6425 81.6105 21.0421 81.6105 21.5164C81.6105 22.0395 81.8141 22.474 82.2194 22.8148C82.5711 23.1287 83.2128 23.4705 84.1406 23.8372C85.2791 24.2976 86.1155 24.8337 86.651 25.4495C87.1904 26.0654 87.4586 26.8337 87.4586 27.7495ZM94.4789 23.5014H92.1444V28.1441C92.1444 29.3249 92.5557 29.9138 93.3802 29.9138C93.7587 29.9138 94.0726 29.8819 94.3209 29.8152L94.3796 31.4285C93.9623 31.585 93.413 31.6637 92.7325 31.6637C91.8961 31.6637 91.2424 31.4076 90.7706 30.8954C90.3007 30.3832 90.0643 29.5252 90.0643 28.3175V23.4974H88.6735V21.903H90.0643V20.1522L92.1444 19.5224V21.903H94.4789V23.5014ZM104.991 26.6095C104.991 28.0793 104.572 29.286 103.735 30.2297C102.86 31.2013 101.696 31.6856 100.245 31.6856C98.8439 31.6856 97.7303 31.2202 96.8998 30.2905C96.0693 29.3588 95.6541 28.1849 95.6541 26.7689C95.6541 25.2871 96.0832 24.0734 96.9385 23.1297C97.7958 22.185 98.9502 21.7127 100.402 21.7127C101.8 21.7127 102.924 22.1791 103.774 23.1098C104.587 24.0126 104.991 25.1785 104.991 26.6095ZM102.796 26.6583C102.796 25.7824 102.607 25.031 102.228 24.4022C101.784 23.6429 101.149 23.2632 100.325 23.2632C99.4767 23.2632 98.826 23.6429 98.3829 24.4022C98.0035 25.031 97.8147 25.7953 97.8147 26.6982C97.8147 27.5751 98.0035 28.3284 98.3829 28.9552C98.8409 29.7145 99.4796 30.0942 100.307 30.0942C101.117 30.0942 101.752 29.7066 102.21 28.9363C102.6 28.2925 102.796 27.5362 102.796 26.6583ZM111.878 23.7754C111.658 23.7355 111.434 23.7159 111.211 23.7166C110.466 23.7166 109.889 23.9977 109.484 24.5637C109.132 25.0619 108.956 25.6917 108.956 26.452V31.4694H106.838V24.9184C106.84 23.9146 106.819 22.9109 106.776 21.908H108.621L108.698 23.7376H108.757C108.981 23.1088 109.333 22.6016 109.816 22.2219C110.258 21.8901 110.795 21.7105 111.347 21.7097C111.542 21.7097 111.719 21.7237 111.876 21.7486L111.878 23.7754ZM121.35 26.2358C121.356 26.5587 121.33 26.8815 121.273 27.1994H114.919C114.943 28.1441 115.251 28.8675 115.841 29.3658C116.376 29.8102 117.069 30.0334 117.919 30.0334C118.86 30.0334 119.718 29.8839 120.49 29.582L120.822 31.0558C119.92 31.4504 118.855 31.6467 117.626 31.6467C116.148 31.6467 114.988 31.2103 114.143 30.3393C113.301 29.4674 112.879 28.2955 112.879 26.8277C112.879 25.3868 113.271 24.186 114.057 23.2284C114.879 22.206 115.991 21.6948 117.39 21.6948C118.763 21.6948 119.803 22.206 120.51 23.2284C121.069 24.0385 121.35 25.043 121.35 26.2358ZM119.331 25.6847C119.346 25.0539 119.206 24.5108 118.919 24.0515C118.553 23.4595 117.989 23.1646 117.233 23.1646C116.54 23.1646 115.976 23.4526 115.547 24.0305C115.194 24.4899 114.985 25.042 114.92 25.6827L119.331 25.6847Z" fill="white"/>
<path d="M44.9125 13.5191C44.3234 13.5191 43.8138 13.4902 43.3896 13.4414V7.02998C43.9829 6.93804 44.5824 6.89273 45.1827 6.89445C47.6116 6.89445 48.7301 8.09323 48.7301 10.0474C48.7301 12.3014 47.4089 13.5191 44.9125 13.5191ZM45.2682 7.71656C44.9403 7.71656 44.6612 7.73649 44.4297 7.78432V12.6582C44.5549 12.6781 44.7953 12.6871 45.1331 12.6871C46.7245 12.6871 47.6304 11.7783 47.6304 10.0763C47.6304 8.5586 46.8109 7.71656 45.2682 7.71656ZM52.2159 13.568C50.8471 13.568 49.96 12.5426 49.96 11.1505C49.96 9.69958 50.8659 8.66522 52.2934 8.66522C53.6425 8.66522 54.5494 9.64178 54.5494 11.0737C54.5494 12.5426 53.6146 13.568 52.2159 13.568ZM52.2557 9.42853C51.5037 9.42853 51.0219 10.1341 51.0219 11.1206C51.0219 12.0882 51.5136 12.7937 52.2457 12.7937C52.9779 12.7937 53.4696 12.0393 53.4696 11.1007C53.4696 10.144 52.9878 9.42853 52.2557 9.42853ZM62.3555 8.76188L60.8903 13.4613H59.9356L59.3286 11.4205C59.1777 10.9213 59.0521 10.4148 58.9522 9.90287H58.9323C58.8558 10.4151 58.7108 10.9283 58.5568 11.4205L57.9111 13.4613H56.9465L55.5677 8.76188H56.6375L57.168 10.996C57.2932 11.5281 57.3985 12.0304 57.4859 12.5047H57.5058C57.5823 12.1091 57.7074 11.6148 57.8912 11.006L58.5568 8.76288H59.4051L60.0419 10.9582C60.1959 11.4903 60.321 12.0124 60.4184 12.5057H60.4462C60.5138 12.0224 60.6201 11.5092 60.7641 10.9582L61.3333 8.76288L62.3555 8.76188ZM67.7496 13.4613H66.7086V10.7628C66.7086 9.93176 66.3907 9.51523 65.7638 9.51523C65.1469 9.51523 64.7228 10.0474 64.7228 10.6662V13.4613H63.6817V10.1052C63.6817 9.68962 63.6718 9.24418 63.643 8.76088H64.5589L64.6075 9.48633H64.6363C64.9165 8.9841 65.4847 8.66522 66.1215 8.66522C67.1049 8.66522 67.7506 9.41957 67.7506 10.6472L67.7496 13.4613ZM70.6205 13.4613H69.5785V6.60547H70.6205V13.4613ZM74.4163 13.568C73.0484 13.568 72.1603 12.5426 72.1603 11.1505C72.1603 9.69958 73.0663 8.66522 74.4928 8.66522C75.8428 8.66522 76.7488 9.64178 76.7488 11.0737C76.7498 12.5426 75.814 13.568 74.4163 13.568ZM74.455 9.42853C73.703 9.42853 73.2213 10.1341 73.2213 11.1206C73.2213 12.0882 73.714 12.7937 74.4441 12.7937C75.1772 12.7937 75.668 12.0393 75.668 11.1007C75.669 10.144 75.1882 9.42853 74.455 9.42853ZM80.8535 13.4613L80.778 12.9202H80.7502C80.4323 13.3557 79.9684 13.568 79.3803 13.568C78.5409 13.568 77.9448 12.978 77.9448 12.1848C77.9448 11.0249 78.9472 10.425 80.6826 10.425V10.3383C80.6826 9.71951 80.3558 9.4096 79.7101 9.4096C79.2482 9.4096 78.8429 9.52619 78.4862 9.75837L78.2746 9.07179C78.7078 8.80074 79.2482 8.66522 79.8829 8.66522C81.1068 8.66522 81.7247 9.31294 81.7247 10.6094V12.3403C81.7247 12.8146 81.7456 13.1823 81.7922 13.4623L80.8535 13.4613ZM80.7104 11.1206C79.5541 11.1206 78.974 11.4016 78.974 12.0682C78.974 12.5615 79.273 12.8027 79.6882 12.8027C80.2177 12.8027 80.7104 12.3971 80.7104 11.846V11.1206ZM86.7801 13.4613L86.7314 12.707H86.7026C86.4036 13.277 85.9009 13.568 85.1986 13.568C84.0691 13.568 83.2327 12.5715 83.2327 11.1694C83.2327 9.69958 84.0999 8.66423 85.284 8.66423C85.9109 8.66423 86.3549 8.87648 86.6052 9.30298H86.6261V6.60547H87.6682V12.1948C87.6682 12.6492 87.6791 13.0747 87.7069 13.4613H86.7801ZM86.6261 10.6961C86.6261 10.0384 86.192 9.47736 85.5294 9.47736C84.7575 9.47736 84.2857 10.1639 84.2857 11.1305C84.2857 12.0782 84.7754 12.7269 85.5085 12.7269C86.1632 12.7269 86.6261 12.1559 86.6261 11.4793V10.6961ZM94.2752 13.568C92.9073 13.568 92.0202 12.5426 92.0202 11.1505C92.0202 9.69958 92.9262 8.66522 94.3527 8.66522C95.7027 8.66522 96.6087 9.64178 96.6087 11.0737C96.6097 12.5426 95.6749 13.568 94.2752 13.568ZM94.314 9.42853C93.563 9.42853 93.0812 10.1341 93.0812 11.1206C93.0812 12.0882 93.5729 12.7937 94.304 12.7937C95.0372 12.7937 95.5279 12.0393 95.5279 11.1007C95.5299 10.144 95.0481 9.42853 94.314 9.42853ZM102.207 13.4613H101.165V10.7628C101.165 9.93176 100.848 9.51523 100.221 9.51523C99.6038 9.51523 99.1806 10.0474 99.1806 10.6662V13.4613H98.1385V10.1052C98.1385 9.68962 98.1286 9.24418 98.0998 8.76088H99.0157L99.0644 9.48633H99.0932C99.3723 8.9841 99.9416 8.66423 100.577 8.66423C101.561 8.66423 102.207 9.41857 102.207 10.6463V13.4613ZM109.212 9.54513H108.067V11.8271C108.067 12.4081 108.267 12.698 108.672 12.698C108.856 12.698 109.01 12.6781 109.134 12.6492L109.163 13.4424C108.962 13.5201 108.691 13.559 108.356 13.559C107.535 13.559 107.044 13.1046 107.044 11.9148V9.54513H106.361V8.76188H107.044V7.90091L108.067 7.591V8.76088H109.212V9.54513ZM114.723 13.4613H113.683V10.7828C113.683 9.94173 113.366 9.51623 112.738 9.51623C112.199 9.51623 111.696 9.88393 111.696 10.6283V13.4613H110.656V6.60547H111.696V9.42853H111.717C112.045 8.91634 112.52 8.66423 113.126 8.66423C114.117 8.66423 114.723 9.4375 114.723 10.6662V13.4613ZM120.37 11.3627H117.245C117.265 12.2526 117.852 12.7548 118.722 12.7548C119.184 12.7548 119.609 12.6771 119.984 12.5326L120.146 13.2581C119.703 13.4514 119.182 13.548 118.575 13.548C117.109 13.548 116.242 12.6193 116.242 11.1794C116.242 9.73844 117.13 8.65526 118.457 8.65526C119.654 8.65526 120.405 9.54513 120.405 10.8894C120.412 11.048 120.4 11.2069 120.37 11.3627ZM119.415 10.6183C119.415 9.8929 119.05 9.3807 118.385 9.3807C117.787 9.3807 117.314 9.90287 117.246 10.6183H119.415Z" fill="white"/>
</g>
<defs>
<linearGradient id="paint0_linear_286_32501" x1="98.3049" y1="40.0307" x2="98.3049" y2="-103.683" gradientUnits="userSpaceOnUse">
<stop stop-color="#1A1A1A" stop-opacity="0.1"/>
<stop offset="0.123" stop-color="#212121" stop-opacity="0.151"/>
<stop offset="0.308" stop-color="#353535" stop-opacity="0.227"/>
<stop offset="0.532" stop-color="#575757" stop-opacity="0.318"/>
<stop offset="0.783" stop-color="#858585" stop-opacity="0.421"/>
<stop offset="1" stop-color="#B3B3B3" stop-opacity="0.51"/>
</linearGradient>
<clipPath id="clip0_286_32501">
<rect width="134" height="40" fill="white"/>
</clipPath>
</defs>
</svg>
