<svg width="134" height="40" viewBox="0 0 134 40" fill="none" xmlns="http://www.w3.org/2000/svg">
<g clip-path="url(#clip0_286_32488)">
<path d="M129.037 39.9192H4.96296C2.1837 39.9192 0 37.7281 0 34.9394V5.06082C0 2.27215 2.1837 0.0810547 4.96296 0.0810547H129.037C131.816 0.0810547 134 2.27215 134 5.06082V34.9394C134 37.7281 131.816 39.9192 129.037 39.9192Z" fill="black"/>
<path d="M129.037 0.877818C131.32 0.877818 133.206 2.77013 133.206 5.06082V34.9394C133.206 37.2301 131.32 39.1224 129.037 39.1224H4.96296C2.68 39.1224 0.794074 37.2301 0.794074 34.9394V5.06082C0.794074 2.77013 2.68 0.877818 4.96296 0.877818H129.037ZM129.037 0.0810547H4.96296C2.1837 0.0810547 0 2.37175 0 5.06082V34.9394C0 37.7281 2.1837 39.9192 4.96296 39.9192H129.037C131.816 39.9192 134 37.7281 134 34.9394V5.06082C134 2.37175 131.816 0.0810547 129.037 0.0810547Z" fill="#A6A6A6"/>
<path d="M47.0489 10.2401C47.0489 11.0369 46.8504 11.734 46.3541 12.232C45.7585 12.8296 45.0637 13.1284 44.1704 13.1284C43.277 13.1284 42.5822 12.8296 41.9867 12.232C41.3911 11.6344 41.0933 10.9373 41.0933 10.0409C41.0933 9.14455 41.3911 8.44738 41.9867 7.84981C42.5822 7.25224 43.277 6.95345 44.1704 6.95345C44.5674 6.95345 44.9644 7.05305 45.3615 7.25224C45.7585 7.45143 46.0563 7.65062 46.2548 7.9494L45.7585 8.44738C45.3615 7.9494 44.8652 7.75021 44.1704 7.75021C43.5748 7.75021 42.9793 7.9494 42.5822 8.44738C42.0859 8.84576 41.8874 9.44334 41.8874 10.1405C41.8874 10.8377 42.0859 11.4352 42.5822 11.8336C43.0785 12.232 43.5748 12.5308 44.1704 12.5308C44.8652 12.5308 45.3615 12.3316 45.8578 11.8336C46.1555 11.5348 46.3541 11.1365 46.3541 10.6385H44.1704V9.84172H47.0489V10.2401ZM51.6148 7.75021H48.9348V9.64253H51.4163V10.3397H48.9348V12.232H51.6148V13.0288H48.1407V7.05305H51.6148V7.75021ZM54.8904 13.0288H54.0963V7.75021H52.4089V7.05305H56.5778V7.75021H54.8904V13.0288ZM59.4563 13.0288V7.05305H60.2504V13.0288H59.4563ZM63.6252 13.0288H62.8311V7.75021H61.1437V7.05305H65.2133V7.75021H63.5259V13.0288H63.6252ZM73.0548 12.232C72.4592 12.8296 71.7644 13.1284 70.8711 13.1284C69.9778 13.1284 69.283 12.8296 68.6874 12.232C68.0918 11.6344 67.7941 10.9373 67.7941 10.0409C67.7941 9.14455 68.0918 8.44738 68.6874 7.84981C69.283 7.25224 69.9778 6.95345 70.8711 6.95345C71.7644 6.95345 72.4592 7.25224 73.0548 7.84981C73.6504 8.44738 73.9481 9.14455 73.9481 10.0409C73.9481 10.9373 73.6504 11.6344 73.0548 12.232ZM69.283 11.734C69.68 12.1324 70.2756 12.4312 70.8711 12.4312C71.4667 12.4312 72.0622 12.232 72.4593 11.734C72.8563 11.3356 73.1541 10.7381 73.1541 10.0409C73.1541 9.34374 72.9555 8.74617 72.4593 8.34779C72.0622 7.9494 71.4667 7.65062 70.8711 7.65062C70.2756 7.65062 69.68 7.84981 69.283 8.34779C68.8859 8.74617 68.5881 9.34374 68.5881 10.0409C68.5881 10.7381 68.7867 11.3356 69.283 11.734ZM75.04 13.0288V7.05305H75.9333L78.8118 11.734V7.05305H79.6059V13.0288H78.8118L75.7348 8.1486V13.0288H75.04Z" fill="white"/>
<path d="M40.8853 10.041C40.8853 9.08971 41.2049 8.33969 41.8395 7.70296C42.4741 7.06619 43.222 6.74512 44.1706 6.74512C44.6035 6.74515 45.0323 6.85383 45.4548 7.06576C45.8606 7.26938 46.1983 7.48894 46.4277 7.83398L46.522 7.97559L46.4025 8.09684L45.9059 8.59489L45.7409 8.75928L45.5962 8.57699C45.2466 8.1385 44.8157 7.95853 44.1706 7.9585C43.619 7.9585 43.0918 8.14216 42.7449 8.57699L42.7303 8.5957L42.7124 8.60954C42.282 8.95499 42.0955 9.48146 42.0955 10.1403C42.0955 10.7992 42.282 11.3256 42.7124 11.6711C43.2001 12.0626 43.649 12.3221 44.1706 12.3221C44.4974 12.3221 44.7671 12.2758 45.0094 12.1764C45.2516 12.077 45.4778 11.9203 45.7108 11.6865C45.9305 11.466 46.0855 11.1872 46.131 10.8467H43.9625V9.6333H47.2567V10.2404C47.2567 11.069 47.0504 11.8283 46.5016 12.3791C45.8671 13.0158 45.119 13.3369 44.1706 13.3369C43.222 13.3369 42.4741 13.0158 41.8395 12.3791C41.2049 11.7423 40.8853 10.9923 40.8853 10.041ZM73.7399 10.041C73.7399 9.19966 73.4641 8.55514 72.9076 7.99674C72.3511 7.43841 71.7088 7.16178 70.8707 7.16178C70.0329 7.16186 69.3911 7.43853 68.8347 7.99674C68.2782 8.55514 68.0024 9.19966 68.0024 10.041C68.0024 10.8822 68.2783 11.5261 68.8347 12.0845C69.3911 12.6428 70.0328 12.9202 70.8707 12.9202C71.7089 12.9202 72.3511 12.6428 72.9076 12.0845C73.4639 11.5262 73.7399 10.8822 73.7399 10.041ZM51.823 6.8444V7.9585H49.1432V9.43392H51.6247V10.548H49.1432V12.0234H51.823V13.2368H47.933V6.8444H51.823ZM56.7859 6.8444V7.9585H55.0985V13.2368H53.8883V7.9585H52.2009V6.8444H56.7859ZM60.4581 6.8444V13.2368H59.2478V6.8444H60.4581ZM65.4218 6.8444V7.9585H63.7336V13.0285L63.6252 13.0288L63.6255 13.2368H62.6234V7.9585H60.936V6.8444H65.4218ZM76.0499 6.8444L78.6036 10.998V6.8444H79.8139V13.2368H78.6971L75.9426 8.86751V13.2368H74.8323V6.8444H76.0499ZM75.2484 12.8201H75.5264V7.42871L78.9263 12.8201H79.3977V7.26107H79.0198V12.4694L75.8166 7.26107H75.2484V12.8201ZM61.3521 7.54183H63.0395V12.8201H63.3175V7.54183H65.0056V7.26107H61.3521V7.54183ZM59.664 12.8201H60.0419V7.26107H59.664V12.8201ZM52.6171 7.54183H54.3044V12.8201H54.6824V7.54183H56.3697V7.26107H52.6171V7.54183ZM48.3491 12.8201H51.4068V12.4401H48.7271V10.1313H51.2085V9.85059H48.7271V7.54183H51.4068V7.26107H48.3491V12.8201ZM72.9458 10.041C72.9458 9.38208 72.7593 8.85574 72.3289 8.51025L72.32 8.50293L72.3118 8.49479C71.9463 8.12807 71.4011 7.85921 70.8707 7.85921C70.3193 7.85929 69.7927 8.04292 69.4459 8.4777L69.4386 8.48665L69.4305 8.49479C69.0686 8.85785 68.7965 9.40408 68.7965 10.041C68.7965 10.6587 68.9604 11.1594 69.3354 11.5042L69.4134 11.5718L69.4223 11.5791L69.4305 11.5872C69.7959 11.9538 70.3406 12.2227 70.8707 12.2228C71.4223 12.2228 71.9495 12.0391 72.2964 11.6043L72.3037 11.5954L72.3118 11.5872C72.6736 11.2242 72.9458 10.6779 72.9458 10.041ZM41.3014 10.041C41.3014 10.8822 41.5774 11.5262 42.1337 12.0845C42.6902 12.6428 43.3324 12.9202 44.1706 12.9202C45.0086 12.9202 45.6501 12.6428 46.2066 12.0845C46.6501 11.6394 46.8405 11.005 46.8406 10.2404V10.05H44.3786V10.43H46.5618V10.6383C46.5618 11.1972 46.3375 11.6475 46.005 11.9811C45.7417 12.2453 45.4707 12.4367 45.167 12.5614C44.8636 12.6859 44.5382 12.7388 44.1706 12.7388C43.501 12.7388 42.9572 12.401 42.4523 11.9958C41.8902 11.5445 41.6794 10.8757 41.6794 10.1403C41.6794 9.41279 41.8856 8.75048 42.4344 8.29948C42.8814 7.75203 43.5381 7.54183 44.1706 7.54183C44.8312 7.54186 45.3482 7.71391 45.7669 8.14242L45.9774 7.93164C45.8126 7.74597 45.5843 7.59689 45.2686 7.43848C44.8971 7.2521 44.5315 7.16182 44.1706 7.16178C43.3324 7.16178 42.6902 7.43837 42.1337 7.99674C41.5772 8.55513 41.3014 9.19967 41.3014 10.041ZM73.3619 10.041C73.3619 10.7982 73.039 11.4473 72.6069 11.881C72.1598 12.4288 71.5034 12.6395 70.8707 12.6395C70.2184 12.6394 69.5809 12.3185 69.1525 11.8965C68.5905 11.4452 68.3804 10.7763 68.3804 10.041C68.3804 9.28924 68.6991 8.64443 69.1265 8.21077C69.5736 7.65537 70.2342 7.44263 70.8707 7.44255C71.5233 7.44255 72.1613 7.7634 72.5898 8.18555L72.6906 8.27262C73.1769 8.72065 73.3619 9.3516 73.3619 10.041ZM74.156 10.041C74.156 10.9923 73.8364 11.7423 73.2018 12.3791C72.5672 13.0158 71.8193 13.3369 70.8707 13.3369C69.9224 13.3368 69.175 13.0157 68.5405 12.3791C67.9059 11.7423 67.5863 10.9923 67.5863 10.041C67.5863 9.08966 67.9059 8.33972 68.5405 7.70296C69.175 7.06629 69.9224 6.7452 70.8707 6.74512C71.8193 6.74512 72.5672 7.06619 73.2018 7.70296C73.8364 8.33971 74.156 9.08967 74.156 10.041Z" fill="white"/>
<path d="M67.5954 21.7923C65.2132 21.7923 63.3273 23.585 63.3273 26.0749C63.3273 28.4652 65.2132 30.3575 67.5954 30.3575C69.9776 30.3575 71.8636 28.5648 71.8636 26.0749C71.8636 23.4854 69.9776 21.7923 67.5954 21.7923ZM67.5954 28.5648C66.305 28.5648 65.2132 27.4692 65.2132 25.9753C65.2132 24.4814 66.305 23.3858 67.5954 23.3858C68.8858 23.3858 69.9776 24.3818 69.9776 25.9753C69.9776 27.4692 68.8858 28.5648 67.5954 28.5648ZM58.3643 21.7923C55.9821 21.7923 54.0962 23.585 54.0962 26.0749C54.0962 28.4652 55.9821 30.3575 58.3643 30.3575C60.7465 30.3575 62.6324 28.5648 62.6324 26.0749C62.6324 23.4854 60.7465 21.7923 58.3643 21.7923ZM58.3643 28.5648C57.0739 28.5648 55.9821 27.4692 55.9821 25.9753C55.9821 24.4814 57.0739 23.3858 58.3643 23.3858C59.6547 23.3858 60.7465 24.3818 60.7465 25.9753C60.7465 27.4692 59.6547 28.5648 58.3643 28.5648ZM47.3465 23.0871V24.8798H51.6147C51.5154 25.8757 51.1184 26.6725 50.6221 27.1705C50.0265 27.768 49.0339 28.4652 47.3465 28.4652C44.6665 28.4652 42.6813 26.3737 42.6813 23.6846C42.6813 20.9955 44.7658 18.904 47.3465 18.904C48.7362 18.904 49.828 19.5016 50.6221 20.1988L51.9124 18.904C50.8206 17.9081 49.431 17.1113 47.4458 17.1113C43.8724 17.1113 40.7954 20.0992 40.7954 23.6846C40.7954 27.2701 43.8724 30.2579 47.4458 30.2579C49.431 30.2579 50.8206 29.6603 52.0117 28.3656C53.2028 27.1705 53.5999 25.4773 53.5999 24.1826C53.5999 23.7842 53.5999 23.3858 53.5006 23.0871H47.3465ZM92.4102 24.4814C92.0132 23.4854 91.0206 21.7923 88.8369 21.7923C86.6532 21.7923 84.8665 23.4854 84.8665 26.0749C84.8665 28.4652 86.6532 30.3575 89.0354 30.3575C90.9213 30.3575 92.1124 29.1624 92.5095 28.4652L91.1199 27.4692C90.6236 28.1664 90.028 28.6644 89.0354 28.6644C88.0428 28.6644 87.4473 28.266 86.951 27.3697L92.6087 24.9794L92.4102 24.4814ZM86.6532 25.8757C86.6532 24.2822 87.9436 23.3858 88.8369 23.3858C89.5317 23.3858 90.2265 23.7842 90.425 24.2822L86.6532 25.8757ZM81.988 29.9591H83.8739V17.5097H81.988V29.9591ZM79.0102 22.6887C78.5139 22.1907 77.7199 21.6927 76.7273 21.6927C74.6428 21.6927 72.6576 23.585 72.6576 25.9753C72.6576 28.3656 74.5436 30.1583 76.7273 30.1583C77.7199 30.1583 78.5139 29.6603 78.911 29.1624H79.0102V29.7599C79.0102 31.3535 78.1169 32.2498 76.7273 32.2498C75.6354 32.2498 74.8413 31.4531 74.6428 30.7559L73.0547 31.4531C73.551 32.5486 74.7421 33.9429 76.8265 33.9429C79.0102 33.9429 80.7969 32.6482 80.7969 29.5608V21.9915H79.0102V22.6887ZM76.8265 28.5648C75.5362 28.5648 74.4443 27.4692 74.4443 25.9753C74.4443 24.4814 75.5362 23.3858 76.8265 23.3858C78.1169 23.3858 79.1095 24.4814 79.1095 25.9753C79.1095 27.4692 78.1169 28.5648 76.8265 28.5648ZM101.046 17.5097H96.5791V29.9591H98.465V25.2781H101.046C103.13 25.2781 105.115 23.7842 105.115 21.3939C105.115 19.0036 103.13 17.5097 101.046 17.5097ZM101.145 23.4854H98.465V19.2028H101.145C102.535 19.2028 103.329 20.398 103.329 21.2943C103.229 22.3899 102.435 23.4854 101.145 23.4854ZM112.56 21.6927C111.17 21.6927 109.781 22.2903 109.284 23.585L110.972 24.2822C111.369 23.585 111.964 23.3858 112.659 23.3858C113.652 23.3858 114.545 23.9834 114.644 24.9794V25.079C114.347 24.8798 113.552 24.581 112.758 24.581C110.972 24.581 109.185 25.5769 109.185 27.3697C109.185 29.0628 110.674 30.1583 112.262 30.1583C113.552 30.1583 114.148 29.5608 114.644 28.9632H114.744V29.9591H116.53V25.1786C116.332 22.9875 114.644 21.6927 112.56 21.6927ZM112.361 28.5648C111.766 28.5648 110.872 28.266 110.872 27.4692C110.872 26.4733 111.964 26.1745 112.858 26.1745C113.652 26.1745 114.049 26.3737 114.545 26.5729C114.347 27.768 113.354 28.5648 112.361 28.5648ZM122.784 21.9915L120.699 27.3697H120.6L118.416 21.9915H116.431L119.707 29.5608L117.821 33.7438H119.707L124.769 21.9915H122.784ZM106.108 29.9591H107.994V17.5097H106.108V29.9591Z" fill="white"/>
<path d="M10.3231 7.55078C10.0253 7.84957 9.92603 8.34754 9.92603 8.94512V30.9557C9.92603 31.5533 10.1245 32.0513 10.4223 32.35L10.5216 32.4496L22.8297 20.0998V19.9006L10.3231 7.55078Z" fill="url(#paint0_linear_286_32488)"/>
<path d="M26.8003 24.282L22.7307 20.1986V19.8998L26.8003 15.8164L26.8996 15.916L31.7633 18.7047C33.1529 19.5014 33.1529 20.7962 31.7633 21.5929L26.8003 24.282Z" fill="url(#paint1_linear_286_32488)"/>
<path d="M26.8991 24.183L22.7302 20L10.3228 32.4494C10.8191 32.9474 11.5139 32.9474 12.4072 32.549L26.8991 24.183Z" fill="url(#paint2_linear_286_32488)"/>
<path d="M26.8991 15.8165L12.4072 7.55005C11.5139 7.05207 10.8191 7.15167 10.3228 7.64965L22.7302 19.9995L26.8991 15.8165Z" fill="url(#paint3_linear_286_32488)"/>
<path opacity="0.2" d="M26.7998 24.083L12.4072 32.2498C11.6131 32.7478 10.9183 32.6482 10.422 32.2498L10.3228 32.3494L10.422 32.449C10.9183 32.8474 11.6131 32.947 12.4072 32.449L26.7998 24.083Z" fill="black"/>
<path opacity="0.12" d="M10.3231 32.2502C10.0253 31.9514 9.92603 31.4535 9.92603 30.8559V30.9555C9.92603 31.5531 10.1245 32.051 10.4223 32.3498V32.2502H10.3231ZM31.7631 21.2947L26.8001 24.0834L26.8994 24.183L31.7631 21.3943C32.4579 20.996 32.7557 20.498 32.7557 20C32.7557 20.498 32.3586 20.8964 31.7631 21.2947Z" fill="black"/>
<path opacity="0.25" d="M12.4075 7.6502L31.7631 18.7053C32.3586 19.1037 32.7557 19.502 32.7557 20C32.7557 19.502 32.4579 19.0041 31.7631 18.6057L12.4075 7.5506C11.0179 6.75384 9.92603 7.35141 9.92603 8.94494V9.04453C9.92603 7.5506 11.0179 6.85343 12.4075 7.6502Z" fill="white"/>
</g>
<defs>
<linearGradient id="paint0_linear_286_32488" x1="21.6386" y1="8.75589" x2="4.92362" y2="25.4135" gradientUnits="userSpaceOnUse">
<stop stop-color="#00A0FF"/>
<stop offset="0.007" stop-color="#00A1FF"/>
<stop offset="0.26" stop-color="#00BEFF"/>
<stop offset="0.512" stop-color="#00D2FF"/>
<stop offset="0.76" stop-color="#00DFFF"/>
<stop offset="1" stop-color="#00E3FF"/>
</linearGradient>
<linearGradient id="paint1_linear_286_32488" x1="33.5837" y1="20.0004" x2="9.56596" y2="20.0004" gradientUnits="userSpaceOnUse">
<stop stop-color="#FFE000"/>
<stop offset="0.409" stop-color="#FFBD00"/>
<stop offset="0.775" stop-color="#FFA500"/>
<stop offset="1" stop-color="#FF9C00"/>
</linearGradient>
<linearGradient id="paint2_linear_286_32488" x1="24.6429" y1="22.2867" x2="1.9771" y2="44.876" gradientUnits="userSpaceOnUse">
<stop stop-color="#FF3A44"/>
<stop offset="1" stop-color="#C31162"/>
</linearGradient>
<linearGradient id="paint3_linear_286_32488" x1="7.24274" y1="0.255685" x2="17.3646" y2="10.3433" gradientUnits="userSpaceOnUse">
<stop stop-color="#32A071"/>
<stop offset="0.069" stop-color="#2DA771"/>
<stop offset="0.476" stop-color="#15CF74"/>
<stop offset="0.801" stop-color="#06E775"/>
<stop offset="1" stop-color="#00F076"/>
</linearGradient>
<clipPath id="clip0_286_32488">
<rect width="134" height="40" fill="white"/>
</clipPath>
</defs>
</svg>
