<svg width="32" height="32" viewBox="0 0 32 32" fill="none" xmlns="http://www.w3.org/2000/svg">
<path d="M28.2325 12.8525C27.7613 12.36 27.2738 11.8525 27.09 11.4062C26.92 10.9975 26.91 10.32 26.9 9.66375C26.8812 8.44375 26.8612 7.06125 25.9 6.1C24.9387 5.13875 23.5563 5.11875 22.3363 5.1C21.68 5.09 21.0025 5.08 20.5938 4.91C20.1488 4.72625 19.64 4.23875 19.1475 3.7675C18.285 2.93875 17.305 2 16 2C14.695 2 13.7162 2.93875 12.8525 3.7675C12.36 4.23875 11.8525 4.72625 11.4062 4.91C11 5.08 10.32 5.09 9.66375 5.1C8.44375 5.11875 7.06125 5.13875 6.1 6.1C5.13875 7.06125 5.125 8.44375 5.1 9.66375C5.09 10.32 5.08 10.9975 4.91 11.4062C4.72625 11.8512 4.23875 12.36 3.7675 12.8525C2.93875 13.715 2 14.695 2 16C2 17.305 2.93875 18.2837 3.7675 19.1475C4.23875 19.64 4.72625 20.1475 4.91 20.5938C5.08 21.0025 5.09 21.68 5.1 22.3363C5.11875 23.5563 5.13875 24.9387 6.1 25.9C7.06125 26.8612 8.44375 26.8812 9.66375 26.9C10.32 26.91 10.9975 26.92 11.4062 27.09C11.8512 27.2738 12.36 27.7613 12.8525 28.2325C13.715 29.0613 14.695 30 16 30C17.305 30 18.2837 29.0613 19.1475 28.2325C19.64 27.7613 20.1475 27.2738 20.5938 27.09C21.0025 26.92 21.68 26.91 22.3363 26.9C23.5563 26.8812 24.9387 26.8612 25.9 25.9C26.8612 24.9387 26.8812 23.5563 26.9 22.3363C26.91 21.68 26.92 21.0025 27.09 20.5938C27.2738 20.1488 27.7613 19.64 28.2325 19.1475C29.0613 18.285 30 17.305 30 16C30 14.695 29.0613 13.7162 28.2325 12.8525ZM21.7075 13.7075L14.7075 20.7075C14.6146 20.8005 14.5043 20.8742 14.3829 20.9246C14.2615 20.9749 14.1314 21.0008 14 21.0008C13.8686 21.0008 13.7385 20.9749 13.6171 20.9246C13.4957 20.8742 13.3854 20.8005 13.2925 20.7075L10.2925 17.7075C10.1049 17.5199 9.99944 17.2654 9.99944 17C9.99944 16.7346 10.1049 16.4801 10.2925 16.2925C10.4801 16.1049 10.7346 15.9994 11 15.9994C11.2654 15.9994 11.5199 16.1049 11.7075 16.2925L14 18.5863L20.2925 12.2925C20.3854 12.1996 20.4957 12.1259 20.6171 12.0756C20.7385 12.0253 20.8686 11.9994 21 11.9994C21.1314 11.9994 21.2615 12.0253 21.3829 12.0756C21.5043 12.1259 21.6146 12.1996 21.7075 12.2925C21.8004 12.3854 21.8741 12.4957 21.9244 12.6171C21.9747 12.7385 22.0006 12.8686 22.0006 13C22.0006 13.1314 21.9747 13.2615 21.9244 13.3829C21.8741 13.5043 21.8004 13.6146 21.7075 13.7075Z" fill="#00B64C"/>
<path d="M30 16C30 14.8583 29.2816 13.9663 28.5469 13.1826L28.2324 12.8525C27.7612 12.36 27.2736 11.8525 27.0898 11.4062C26.9624 11.0997 26.9252 10.6418 26.9102 10.1553L26.9004 9.66406C26.8828 8.52032 26.8636 7.23355 26.0693 6.28516L25.9004 6.09961C24.9391 5.13836 23.5559 5.11836 22.3359 5.09961C21.6798 5.08961 21.0024 5.08011 20.5938 4.91016C20.26 4.77235 19.8903 4.46367 19.5186 4.11914L19.1475 3.76758C18.285 2.93883 17.305 2 16 2C14.695 2 13.7163 2.93883 12.8525 3.76758L12.4814 4.11914C12.1101 4.46363 11.7409 4.77236 11.4062 4.91016C11.0001 5.08011 10.3202 5.08961 9.66406 5.09961L9.2002 5.10938C8.10501 5.13889 6.94081 5.25841 6.09961 6.09961C5.13836 7.06086 5.12461 8.44406 5.09961 9.66406L5.08984 10.1553C5.07485 10.6418 5.03765 11.0997 4.91016 11.4062L4.82715 11.5762C4.60425 11.9783 4.17981 12.4217 3.76758 12.8525L3.45312 13.1816C2.71829 13.9648 2 14.8582 2 16C2 17.305 2.93883 18.2837 3.76758 19.1475C4.23882 19.64 4.72641 20.1475 4.91016 20.5938L4.9668 20.7588C5.08276 21.1712 5.09086 21.7617 5.09961 22.3359C5.11836 23.5559 5.13836 24.9391 6.09961 25.9004C7.06086 26.8616 8.44406 26.8816 9.66406 26.9004C10.3202 26.9104 10.9976 26.9199 11.4062 27.0898C11.8512 27.2736 12.36 27.7612 12.8525 28.2324C13.715 29.0612 14.695 30 16 30C17.305 30 18.2837 29.0612 19.1475 28.2324C19.64 27.7612 20.1475 27.2736 20.5938 27.0898C20.9003 26.9624 21.3582 26.9252 21.8447 26.9102L22.3359 26.9004C23.4797 26.8828 24.7664 26.8636 25.7148 26.0693L25.9004 25.9004C26.7416 25.0592 26.8611 23.895 26.8906 22.7998L26.9004 22.3359C26.9104 21.6798 26.9199 21.0024 27.0898 20.5938C27.2736 20.1488 27.7612 19.64 28.2324 19.1475C29.0612 18.285 30 17.305 30 16ZM32 16C32 18.2439 30.3777 19.8002 29.6768 20.5293C29.43 20.7872 29.2415 20.9871 29.0898 21.1689C29.0245 21.2473 28.9801 21.3067 28.9512 21.3486C28.9444 21.3908 28.9348 21.4522 28.9277 21.5371C28.9093 21.7598 28.9047 22.023 28.8994 22.3672C28.8835 23.4065 28.9443 25.6846 27.3145 27.3145C25.6846 28.9443 23.4065 28.8835 22.3672 28.8994C22.023 28.9047 21.7598 28.9093 21.5371 28.9277C21.4516 28.9348 21.3898 28.9443 21.3477 28.9512C21.3145 28.9741 21.2557 29.0165 21.1689 29.0889C20.9872 29.2405 20.7892 29.43 20.5303 29.6777C19.8023 30.3764 18.245 32 16 32C13.7561 32 12.1989 30.3787 11.4697 29.6777L11.1221 29.3477C11.0174 29.2506 10.9219 29.1656 10.8311 29.0898C10.7523 29.0242 10.6924 28.9801 10.6504 28.9512C10.6083 28.9444 10.5472 28.9347 10.4629 28.9277C10.2402 28.9093 9.97699 28.9047 9.63281 28.8994C8.59348 28.8835 6.31537 28.9443 4.68555 27.3145C3.05573 25.6846 3.11655 23.4065 3.10059 22.3672C3.09534 22.023 3.09066 21.7598 3.07227 21.5371C3.06519 21.4515 3.05471 21.3898 3.04785 21.3477C3.02482 21.3144 2.98317 21.2553 2.91113 21.1689C2.75949 20.9872 2.56998 20.7892 2.32227 20.5303V20.5293C1.62332 19.8012 0 18.2444 0 16C0 13.753 1.62581 12.1947 2.3252 11.4668C2.57056 11.2104 2.7591 11.0122 2.91016 10.8311C2.9756 10.7526 3.01896 10.6923 3.04785 10.6504C3.05463 10.6083 3.06529 10.5473 3.07227 10.4629C3.09066 10.2402 3.09534 9.97699 3.10059 9.63281V9.62305C3.12148 8.60358 3.0554 6.31569 4.68555 4.68555C6.31537 3.05573 8.59348 3.11655 9.63281 3.10059C9.97698 3.09534 10.2408 3.09066 10.4639 3.07227C10.5484 3.06528 10.6095 3.05459 10.6514 3.04785C10.6845 3.02492 10.7441 2.98365 10.8311 2.91113C11.0128 2.75949 11.2108 2.56998 11.4697 2.32227C12.1977 1.62359 13.7551 0 16 0C18.2439 0 19.8011 1.62131 20.5303 2.32227L20.8779 2.65234C20.9826 2.74944 21.0781 2.83437 21.1689 2.91016C21.247 2.97525 21.3067 3.01895 21.3486 3.04785C21.3908 3.05467 21.4521 3.06524 21.5371 3.07227C21.7598 3.09066 22.023 3.09534 22.3672 3.10059C23.4065 3.11655 25.6846 3.05573 27.3145 4.68555C28.9443 6.31537 28.8835 8.59348 28.8994 9.63281C28.9047 9.97699 28.9093 10.2402 28.9277 10.4629C28.9348 10.5478 28.9444 10.6092 28.9512 10.6514C28.974 10.6844 29.016 10.7437 29.0889 10.8311C29.2401 11.0124 29.429 11.2098 29.6758 11.4678L29.9756 11.7793C30.7543 12.5953 32 14.0338 32 16ZM21.9961 13.0986C21.9864 13.1961 21.9624 13.292 21.9248 13.3828L21.8828 13.4717C21.8365 13.5584 21.7768 13.6373 21.707 13.707L14.707 20.707C14.6142 20.8 14.5042 20.8745 14.3828 20.9248C14.2615 20.9751 14.1313 21.001 14 21.001C13.8687 21.001 13.7385 20.9751 13.6172 20.9248C13.4958 20.8745 13.3858 20.8 13.293 20.707L10.293 17.707C10.2961 17.7101 10.2996 17.7128 10.3027 17.7158L10.293 17.7061V17.707C10.1053 17.5194 9.99902 17.2654 9.99902 17C9.99902 16.7346 10.1053 16.4806 10.293 16.293C10.4806 16.1053 10.7346 15.999 11 15.999C11.2654 15.999 11.5194 16.1053 11.707 16.293L14 18.5859L20.293 12.293C20.3859 12.2001 20.4958 12.1255 20.6172 12.0752C20.7385 12.025 20.8687 11.999 21 11.999C21.1313 11.999 21.2615 12.025 21.3828 12.0752C21.5042 12.1255 21.6141 12.2001 21.707 12.293C21.7999 12.3859 21.8745 12.4958 21.9248 12.6172C21.975 12.7385 22.001 12.8687 22.001 13L21.9961 13.0986Z" fill="#E6FAEE"/>
</svg>
