<svg width="146" height="48" viewBox="0 0 146 48" fill="none" xmlns="http://www.w3.org/2000/svg">
<path d="M3.5053 26.6106V21.4069C1.9823 21.5843 0.517284 21.3441 0.160507 19.6492C0.564111 14.9372 -0.374659 9.33174 0.182806 4.72749C0.523974 1.91017 2.96121 0.437529 5.58575 0.253449C16.9982 -0.552462 29.3382 0.877525 40.8487 0.253449C43.9705 0.489161 45.9105 2.21772 46.2695 5.38075L46.2807 42.309C46.0577 45.5169 44.2203 47.4835 41.0093 47.7528L5.59021 47.7618C2.99243 47.6832 0.512825 45.9973 0.185035 43.29C-0.36574 38.7329 0.564111 33.1948 0.158277 28.5322C0.323287 26.7363 1.97115 26.4108 3.50752 26.6106H3.5053ZM10.9129 9.93561C12.6366 11.7562 15.2723 9.01746 13.4482 7.30461C11.6956 5.66136 9.46571 8.40909 10.9129 9.93561ZM16.3292 6.83768C13.5976 7.23502 15.0961 11.7697 17.5311 10.2387C19.2147 9.17909 18.2491 6.55931 16.3292 6.83768ZM12.1482 11.204C9.84478 11.4195 9.93844 15.0472 12.4403 14.8721C14.7371 14.7105 14.387 10.9952 12.1482 11.204ZM16.492 11.204C14.164 11.424 14.3446 15.0427 16.7841 14.8721C19.0541 14.7127 18.7843 10.9885 16.492 11.204ZM12.1304 15.586C10.1391 15.7005 9.86931 18.7917 11.8115 19.1868C14.5832 19.7525 14.7683 15.4333 12.1304 15.586ZM16.4742 15.586C14.2465 15.7162 14.2354 19.4112 16.7819 19.2361C19.1009 19.0768 18.7798 15.4535 16.4742 15.586ZM11.642 20.1004C9.84032 20.5157 10.0522 24.2579 12.8662 23.5081C14.7839 22.9986 14.3402 19.4786 11.642 20.1004ZM15.9858 20.1004C14.4851 20.4461 14.4673 23.0098 15.8766 23.4969C18.9827 24.57 19.3685 19.3237 15.9858 20.1004ZM11.8137 24.4667C9.70207 24.8977 10.1257 28.6287 12.9042 27.9104C14.7326 27.4367 14.2755 23.9639 11.8137 24.4667ZM16.1575 24.4667C14.4717 24.8102 14.416 27.43 15.8587 27.8767C19.1277 28.8914 19.1366 23.8583 16.1575 24.4667ZM11.8137 28.8308C9.80688 29.2393 10.1904 32.4675 12.2463 32.4315C14.8352 32.3866 14.4851 28.2852 11.8137 28.8308ZM16.1531 28.8263C14.2889 29.2505 14.4517 32.4675 16.5901 32.4293C19.228 32.3844 18.7642 28.2314 16.1531 28.8263ZM11.9854 33.1881C9.7043 33.5203 10.2239 37.0178 12.4024 36.8135C14.7527 36.5935 14.4584 32.8266 11.9854 33.1881ZM16.3292 33.1881C14.115 33.5113 14.5297 37.0201 16.7462 36.8135C19.2057 36.5823 18.7486 32.8356 16.3292 33.1881ZM20.673 33.1881C18.4587 33.5113 18.8735 37.0201 21.09 36.8135C23.5495 36.5823 23.0924 32.8356 20.673 33.1881ZM26.6735 33.7111C25.0324 31.9309 22.2339 34.6585 24.1315 36.3511C25.8975 37.927 28.1096 35.2691 26.6735 33.7111ZM29.356 33.1903C27.1128 33.6281 27.6301 36.9235 29.773 36.8068C32.1746 36.6789 31.8936 32.6942 29.356 33.1903ZM35.3566 36.2882C37.1672 34.553 34.2907 31.886 32.6451 33.8166C31.2068 35.5048 33.682 37.8911 35.3566 36.2882ZM11.9854 37.5521C9.76005 37.8754 10.1971 41.4313 12.427 41.209C14.6568 40.9868 14.4673 37.1929 11.9854 37.5521ZM16.3292 37.5521C13.6311 37.9472 15.0181 42.52 17.5935 40.8476C19.2303 39.7858 18.2023 37.2782 16.3292 37.5521ZM20.6707 37.5499C17.9191 38.0707 19.4376 42.3315 21.8682 40.9441C23.5829 39.9654 22.5684 37.1907 20.6707 37.5499ZM25.0145 37.5499C22.2629 38.0707 23.7814 42.3315 26.2119 40.9441C27.9267 39.9654 26.9121 37.1907 25.0145 37.5499ZM31.0106 38.0797C29.3048 36.3489 26.6378 39.0719 28.473 40.7129C30.3082 42.3539 32.4466 39.5388 31.0106 38.0797ZM33.8693 37.5499C31.5547 37.8103 31.8468 41.2876 34.1436 41.2023C36.6209 41.108 36.3533 37.2693 33.8693 37.5499Z" fill="#1F1F1F"/>
<path d="M142.495 21.4071V26.6107C144.018 26.4334 145.483 26.6736 145.839 28.3685C145.436 33.0805 146.375 38.6859 145.817 43.2902C145.463 46.2265 142.943 47.5869 140.247 47.7642C128.841 48.5118 116.639 47.1828 105.151 47.7642C102.061 47.5308 100.074 45.7798 99.7304 42.6369L99.7192 5.70867C99.9422 2.50074 101.78 0.534224 104.991 0.264839L140.577 0.255859C143.099 0.377083 145.498 2.10564 145.815 4.72766C146.366 9.28476 145.436 14.8229 145.842 19.4855C145.677 21.2814 144.029 21.6069 142.492 21.4071H142.495ZM114.987 7.36539C113.067 9.29374 116.552 11.9539 117.803 9.60802C118.88 7.58763 116.416 5.93091 114.987 7.36539ZM120.403 6.8356C118.524 7.06233 118.185 10.039 120.232 10.4588C123.032 11.0358 123.142 6.50336 120.403 6.8356ZM124.747 6.8356C122.908 7.05784 122.604 10.057 124.575 10.4588C127.423 11.0403 127.463 6.50785 124.747 6.8356ZM128.012 9.94251C129.53 11.6688 132.277 9.28476 130.728 7.46641C129.084 5.5403 126.495 8.21845 128.012 9.94251ZM135.087 9.93578C136.666 8.26783 133.956 5.43704 132.302 7.55845C130.944 9.29823 133.47 11.6419 135.087 9.93578ZM110.643 11.7294C109.024 13.3525 111.257 15.9072 113.011 14.5288C114.971 12.9888 112.427 9.94027 110.643 11.7294ZM117.547 11.7294C115.805 9.98067 113.143 12.926 115.179 14.5288C116.965 15.9363 119.092 13.2829 117.547 11.7294ZM120.403 11.1996C118.553 11.4241 118.187 14.4031 120.232 14.8229C123.075 15.4088 123.093 10.8741 120.403 11.1996ZM124.914 11.2086C122.972 11.3141 122.517 14.2751 124.446 14.7825C127.312 15.5345 127.555 11.0672 124.914 11.2086ZM129.254 11.2041C126.95 11.4196 127.044 15.0474 129.546 14.8723C131.843 14.7106 131.492 10.9954 129.254 11.2041ZM132.355 14.3066C133.823 15.9745 136.632 13.8306 135.145 11.9225C133.658 10.0143 130.757 12.4904 132.355 14.3066ZM111.865 15.5929C109.769 15.6647 109.486 18.8928 111.515 19.2161C114.349 19.6673 114.316 15.5098 111.865 15.5929ZM116.209 15.5929C113.799 15.6737 113.899 19.6561 116.673 19.2161C118.704 18.8951 118.408 15.5188 116.209 15.5929ZM111.372 20.1006C109.58 20.5159 109.7 23.5353 111.839 23.6026C114.517 23.6879 114.191 19.4473 111.372 20.1006ZM115.716 20.1006C113.923 20.5159 114.044 23.5353 116.182 23.6026C118.936 23.6901 118.564 19.4406 115.716 20.1006ZM120.06 20.1006C118.359 20.4934 118.419 23.5375 120.526 23.6026C123.255 23.6879 122.943 19.4339 120.06 20.1006ZM126.232 20.4575C124.807 19.0971 122.323 20.9222 123.476 22.8079C124.83 25.0236 128.219 22.3567 126.232 20.4575ZM128.748 20.1006C127.256 20.4463 127.213 23.0773 128.62 23.5128C131.834 24.5095 132.045 19.3396 128.748 20.1006ZM115.89 24.4669C113.629 24.862 114.178 28.5279 116.818 27.9173C118.758 27.4683 118.37 24.0336 115.89 24.4669ZM120.232 24.4669C119.353 24.6487 118.698 25.5646 118.838 26.4469C119.119 28.1866 121.454 28.5997 122.241 26.9924C122.919 25.6095 121.73 24.1571 120.229 24.4669H120.232ZM126.232 27.5603C128.103 25.7734 125.186 23.1806 123.612 25.0124C122.118 26.7499 124.671 29.0532 126.232 27.5603ZM128.919 24.4669C126.808 24.8979 127.231 28.6289 130.01 27.9105C131.838 27.4369 131.381 23.964 128.919 24.4669ZM133.261 24.4669C131.633 24.7991 131.499 27.4234 132.962 27.8768C136.242 28.8938 136.349 23.8361 133.261 24.4669ZM128.018 29.354C126.533 30.9231 128.826 33.4868 130.556 31.9872C132.378 30.4068 129.798 27.475 128.018 29.354ZM133.259 28.8264C131.394 29.2507 131.557 32.4654 133.696 32.4295C136.363 32.3846 135.968 28.2091 133.259 28.8264ZM110.643 36.2884C112.334 37.9204 114.74 35.4062 113.266 33.7382C111.685 31.9491 108.844 34.5509 110.643 36.2884ZM117.547 36.2884C119.277 34.5509 116.523 31.9333 114.925 33.7382C113.404 35.4556 115.928 37.9159 117.547 36.2884ZM120.234 33.1905C118.029 33.6193 118.651 36.9192 120.68 36.8362C123.271 36.7329 122.798 32.6899 120.234 33.1905ZM123.675 33.7158C122.14 35.2939 124.489 37.889 126.212 36.349C128.021 34.7372 125.434 31.9042 123.675 33.7158ZM129.091 33.1882C126.81 33.5205 127.329 37.018 129.508 36.8137C131.858 36.5937 131.564 32.8268 129.091 33.1882ZM133.435 33.1882C130.73 33.5833 132.121 38.0731 134.701 36.486C136.336 35.4825 135.359 32.9054 133.435 33.1882ZM113.203 40.6525C114.853 38.9935 112.425 36.4433 110.666 38.017C108.906 39.5906 111.48 42.3855 113.203 40.6525ZM114.987 40.6525C116.653 42.3249 119.177 39.8286 117.609 38.1023C116.035 36.367 113.23 38.888 114.987 40.6525ZM119.331 38.0798C117.712 39.7074 120.16 42.2418 121.868 40.7153C123.666 39.108 121.059 36.3423 119.331 38.0798ZM124.747 37.55C122.531 37.8194 122.854 41.2878 125.024 41.2024C127.499 41.1037 127.26 37.247 124.747 37.55ZM129.091 37.5523C126.868 37.8755 127.3 41.4314 129.532 41.2092C131.876 40.9757 131.539 37.1976 129.091 37.5523Z" fill="#1F1F1F"/>
<path d="M54.9237 0.310028L90.6304 0.253906C93.5716 0.473904 95.7747 2.14858 96.0601 5.20611V42.8123C95.7747 45.8788 93.5649 47.5423 90.6304 47.7645H55.3696C52.4285 47.5445 50.2254 45.8698 49.9399 42.8123L49.9466 5.04672C50.2677 2.31246 52.2568 0.601862 54.9214 0.312273L54.9237 0.310028ZM57.4233 6.83814C54.6382 7.36568 56.2549 11.732 58.6252 10.2391C60.3422 9.1571 59.283 6.48569 57.4233 6.83814ZM61.7649 6.83814C59.4704 7.27364 59.9988 10.8206 62.3759 10.4906C64.6682 10.1718 64.0549 6.40263 61.7649 6.83814ZM83.6509 6.83589C81.7712 7.06262 81.4322 10.0371 83.4792 10.4591C86.3223 11.045 86.4539 6.49691 83.6509 6.83589ZM87.9947 6.83589C86.1551 7.05813 85.8496 10.0573 87.823 10.4591C90.6705 11.0405 90.7932 6.49691 87.9947 6.83589ZM57.5861 11.2044C55.1868 11.4289 55.5525 15.0387 57.8782 14.8726C60.2508 14.7019 59.8427 10.9934 57.5861 11.2044ZM61.9299 11.2044C59.6421 11.4177 59.8383 15.0432 62.222 14.8726C64.6057 14.7019 64.1865 10.9934 61.9299 11.2044ZM66.2714 11.2067C63.9925 11.411 64.1754 15.0409 66.5658 14.8726C68.9562 14.7042 68.5593 11.0024 66.2714 11.2067ZM79.3094 11.1999C77.3315 11.4379 77.2156 14.5538 79.1087 14.8524C82.1034 15.326 81.9607 10.8789 79.3094 11.1999ZM83.6509 11.1999C81.8002 11.4244 81.4345 14.4011 83.4792 14.8232C86.3535 15.4158 86.3691 10.8699 83.6509 11.1999ZM88.1575 11.2044C85.8251 11.4222 85.9366 15.0477 88.4496 14.8726C90.7085 14.7132 90.4922 10.9867 88.1575 11.2044ZM57.7422 15.5864C55.3741 15.6268 55.334 19.2411 57.7132 19.2411C60.0925 19.2411 59.9899 15.546 57.7422 15.5864ZM62.086 15.5864C59.5885 15.6291 59.7714 19.5284 62.3959 19.2366C64.4452 19.0076 64.2668 15.5505 62.086 15.5864ZM66.4297 15.5864C63.9256 15.6381 64.0862 19.6586 66.8913 19.2164C68.8179 18.9133 68.5347 15.5438 66.4297 15.5864ZM69.5493 16.0938C67.8591 17.6899 70.1625 20.2625 71.9174 18.8931C73.7905 17.4272 71.389 14.3585 69.5493 16.0938ZM75.1128 15.5932C73.0168 15.665 72.7336 18.8931 74.7627 19.2164C77.5969 19.6676 77.5634 15.5101 75.1128 15.5932ZM79.4544 15.5887C77.0238 15.7301 77.1732 19.6542 79.9226 19.2186C82.0388 18.8819 81.6909 15.4585 79.4544 15.5887ZM83.7981 15.5864C81.4635 15.7211 81.5014 19.6564 84.2664 19.2164C86.3424 18.8864 86.0904 15.454 83.7981 15.5864ZM88.1419 15.5864C85.9009 15.7166 85.8518 19.4678 88.4541 19.2321C90.8021 19.0188 90.452 15.4517 88.1419 15.5864ZM57.0866 20.1076C55.6618 20.4758 55.5748 23.0192 56.9707 23.4974C60.1349 24.5794 60.3913 19.2546 57.0866 20.1076ZM61.4304 20.1076C60.0412 20.4668 59.8494 22.9496 61.3524 23.4592C64.6146 24.5659 64.7239 19.2568 61.4304 20.1076ZM70.2785 20.1009C68.6618 20.4735 68.5481 23.0125 70.1514 23.5131C73.2219 24.4761 73.4204 19.3735 70.2785 20.1009ZM74.6222 20.1009C72.8294 20.5162 72.9499 23.5355 75.0883 23.6029C77.7663 23.6882 77.4408 19.4476 74.6222 20.1009ZM83.3075 20.1009C81.5995 20.496 81.6731 23.5445 83.7736 23.6029C86.5966 23.6815 86.2376 19.4207 83.3075 20.1009ZM87.6513 20.1009C85.8028 20.5274 86.0703 24.2539 88.8755 23.5086C90.7932 22.9968 90.3494 19.4768 87.6513 20.1009ZM57.2494 24.4627C55.6461 24.8286 55.4789 27.491 57.0866 27.9108C60.2865 28.7414 60.1928 23.7937 57.2494 24.4627ZM61.591 24.4627C59.4971 24.9386 60.0211 28.7437 62.8174 27.8771C64.5567 27.3384 64.0483 23.9037 61.591 24.4627ZM83.4792 24.4672C81.5303 24.869 81.702 27.7469 83.6041 27.958C86.601 28.288 86.1952 23.9082 83.4792 24.4672ZM87.823 24.4672C85.5842 24.9274 86.1841 28.6202 88.9134 27.9108C90.811 27.4192 90.2402 23.9688 87.823 24.4672ZM57.2494 28.8267C55.2738 29.2757 55.6015 32.7351 57.9741 32.4118C60.4047 32.0796 59.6956 28.27 57.2494 28.8267ZM61.7649 28.829C59.5662 29.1926 59.9743 32.56 62.1997 32.432C64.5254 32.2973 64.3337 28.4047 61.7649 28.829ZM83.4815 28.8267C80.9038 29.3228 82.2818 33.4624 84.8127 32.1851C86.4918 31.3365 85.669 28.4069 83.4815 28.8267ZM87.8252 28.8267C85.3412 29.3004 86.5631 33.4736 89.1565 32.1828C90.9381 31.2961 89.9458 28.4226 87.8252 28.8267ZM57.4233 33.1885C55.2091 33.5118 55.6239 37.0205 57.8403 36.814C60.2999 36.5828 59.8427 32.8361 57.4233 33.1885ZM63.4261 33.7116C61.785 31.9314 58.9865 34.6589 60.8841 36.3516C62.6078 37.8893 64.88 35.2875 63.4261 33.7116ZM83.4815 33.1908C81.2784 33.6151 81.8782 37.0071 84.0702 36.8118C86.4695 36.5962 86.1082 32.6857 83.4815 33.1908ZM86.9221 33.7161C85.2319 35.4536 88.1619 38.0824 89.7072 36.0956C91.092 34.3177 88.5031 32.0908 86.9221 33.7161ZM57.4233 37.5526C55.5793 37.822 55.3696 40.6393 57.2918 41.1376C60.01 41.8403 60.2731 37.1373 57.4233 37.5526ZM61.7649 37.5503C59.0132 38.0711 60.5318 42.3319 62.9623 40.9446C64.6771 39.9658 63.6625 37.1911 61.7649 37.5503ZM82.5784 38.0801C80.8168 39.8491 83.7981 42.4756 85.3657 40.4597C86.7638 38.6615 84.1214 36.5289 82.5784 38.0801ZM87.9947 37.5503C85.3323 37.8713 86.5007 42.3274 89.152 40.9087C90.9381 39.9523 89.9146 37.3169 87.9947 37.5503Z" fill="#1F1F1F"/>
<path d="M33.8693 37.5498C36.3533 37.2692 36.6232 41.108 34.1436 41.2022C31.8468 41.2875 31.5525 37.8125 33.8693 37.5498Z" fill="#F3FE51"/>
<path d="M35.3567 36.2886C33.6843 37.8914 31.2069 35.5051 32.6452 33.817C34.2908 31.8864 37.1673 34.5533 35.3567 36.2886Z" fill="#F3FE51"/>
<path d="M10.913 9.93565C9.4658 8.40913 11.6957 5.6614 13.4483 7.30466C15.2746 9.01525 12.6389 11.7562 10.913 9.93565Z" fill="#F3FE51"/>
<path d="M16.3292 6.83797C18.2491 6.55961 19.2147 9.17714 17.5311 10.239C15.0961 11.77 13.5976 7.23532 16.3292 6.83797Z" fill="#F3FE51"/>
<path d="M16.4743 15.5866C18.78 15.4541 19.1033 19.0751 16.782 19.2367C14.2333 19.4118 14.2445 15.7168 16.4743 15.5866Z" fill="#F3FE51"/>
<path d="M11.6422 20.1007C14.3403 19.4789 14.7841 22.9989 12.8664 23.5085C10.0523 24.2582 9.84047 20.516 11.6422 20.1007Z" fill="#F3FE51"/>
<path d="M15.9859 20.1003C19.3663 19.3236 18.9828 24.5676 15.8766 23.4968C14.4696 23.0119 14.4852 20.446 15.9859 20.1003Z" fill="#F3FE51"/>
<path d="M12.1483 11.2038C14.3871 10.995 14.7349 14.7103 12.4404 14.8719C9.94073 15.047 9.84484 11.4193 12.1483 11.2038Z" fill="#F3FE51"/>
<path d="M16.492 11.2043C18.7843 10.9888 19.0519 14.7131 16.7841 14.8724C14.3469 15.0431 14.164 11.4243 16.492 11.2043Z" fill="#F3FE51"/>
<path d="M16.3292 37.552C18.2 37.2781 19.2302 39.7857 17.5935 40.8475C15.018 42.5199 13.6311 37.9449 16.3292 37.552Z" fill="#F3FE51"/>
<path d="M11.8137 28.8312C14.4851 28.2857 14.8352 32.3871 12.2463 32.432C10.1904 32.4679 9.80687 29.242 11.8137 28.8312Z" fill="#F3FE51"/>
<path d="M25.0147 37.5504C26.9123 37.1912 27.9246 39.9681 26.2121 40.9447C23.7838 42.3298 22.263 38.0712 25.0147 37.5504Z" fill="#F3FE51"/>
<path d="M20.6707 37.5504C22.5683 37.1912 23.5806 39.9681 21.8681 40.9447C19.4398 42.3298 17.919 38.0712 20.6707 37.5504Z" fill="#F3FE51"/>
<path d="M12.1304 15.586C14.7684 15.4333 14.5833 19.7525 11.8116 19.1868C9.86712 18.7917 10.1392 15.7005 12.1304 15.586Z" fill="#F3FE51"/>
<path d="M29.3562 33.1902C31.8937 32.6941 32.1747 36.6787 29.7732 36.8067C27.6303 36.9212 27.1129 33.6279 29.3562 33.1902Z" fill="#F3FE51"/>
<path d="M26.6736 33.7113C28.1074 35.2692 25.8977 37.9271 24.1316 36.3512C22.234 34.6586 25.0347 31.9311 26.6736 33.7113Z" fill="#F3FE51"/>
<path d="M20.6731 33.1884C23.0925 32.836 23.5496 36.5827 21.0901 36.8139C18.8759 37.0204 18.4589 33.5117 20.6731 33.1884Z" fill="#F3FE51"/>
<path d="M11.9856 37.5523C14.4674 37.1931 14.7127 40.9825 12.4271 41.2092C10.1415 41.436 9.76021 37.8756 11.9856 37.5523Z" fill="#F3FE51"/>
<path d="M16.3291 33.1884C18.7485 32.836 19.2057 36.5827 16.7461 36.8139C14.5319 37.0204 14.1149 33.5117 16.3291 33.1884Z" fill="#F3FE51"/>
<path d="M16.1577 24.4672C19.1367 23.8589 19.1278 28.8919 15.8589 27.8772C14.4161 27.4305 14.4719 24.8107 16.1577 24.4672Z" fill="#F3FE51"/>
<path d="M11.8139 24.4666C14.2734 23.9638 14.7328 27.4366 12.9043 27.9103C10.1259 28.6286 9.70221 24.8976 11.8139 24.4666Z" fill="#F3FE51"/>
<path d="M11.9854 33.1885C14.4583 32.8271 14.7527 36.5917 12.4024 36.814C10.2238 37.0183 9.7065 33.5207 11.9854 33.1885Z" fill="#F3FE51"/>
<path d="M31.0107 38.0802C32.449 39.5394 30.2994 42.3455 28.4731 40.7135C26.6469 39.0815 29.3049 36.3494 31.0107 38.0802Z" fill="#F3FE51"/>
<path d="M16.1531 28.8269C18.7643 28.232 19.2259 32.385 16.5902 32.4299C14.454 32.4658 14.289 29.2511 16.1531 28.8269Z" fill="#F3FE51"/>
<path d="M120.403 6.83558C123.142 6.50558 123.032 11.0357 120.232 10.4588C118.185 10.0368 118.524 7.06231 120.403 6.83558Z" fill="#F3FE51"/>
<path d="M120.404 11.1994C123.093 10.8739 123.075 15.4085 120.232 14.8226C118.189 14.4028 118.553 11.4239 120.404 11.1994Z" fill="#F3FE51"/>
<path d="M110.643 11.7298C112.427 9.94064 114.974 12.9892 113.011 14.5292C111.254 15.9075 109.025 13.3529 110.643 11.7298Z" fill="#F3FE51"/>
<path d="M117.547 11.7294C119.092 13.2829 116.965 15.9363 115.179 14.5288C113.143 12.9259 115.808 9.98064 117.547 11.7294Z" fill="#F3FE51"/>
<path d="M114.987 7.36517C116.416 5.9307 118.878 7.58742 117.803 9.60781C116.552 11.9537 113.067 9.29577 114.987 7.36517Z" fill="#F3FE51"/>
<path d="M135.087 9.93602C133.471 11.6421 130.944 9.29623 132.302 7.55869C133.957 5.43728 136.666 8.27032 135.087 9.93602Z" fill="#F3FE51"/>
<path d="M120.234 33.1904C122.798 32.6898 123.271 36.7328 120.68 36.836C118.649 36.9169 118.026 33.6191 120.234 33.1904Z" fill="#F3FE51"/>
<path d="M116.209 15.593C118.408 15.5189 118.704 18.8952 116.673 19.2162C113.899 19.6562 113.796 15.6738 116.209 15.593Z" fill="#F3FE51"/>
<path d="M113.203 40.6529C111.477 42.386 108.866 39.627 110.666 38.0175C112.465 36.4079 114.855 38.994 113.203 40.6529Z" fill="#F3FE51"/>
<path d="M124.747 6.83534C127.463 6.50759 127.423 11.04 124.575 10.4586C122.604 10.0567 122.91 7.05758 124.747 6.83534Z" fill="#F3FE51"/>
<path d="M124.914 11.2084C127.557 11.0669 127.314 15.5343 124.446 14.7822C122.517 14.2749 122.97 11.3139 124.914 11.2084Z" fill="#F3FE51"/>
<path d="M132.355 14.3068C130.759 12.4907 133.604 9.94277 135.145 11.9228C136.686 13.9027 133.823 15.977 132.355 14.3068Z" fill="#F3FE51"/>
<path d="M128.747 20.1002C132.045 19.3392 131.834 24.5092 128.62 23.5124C127.213 23.0769 127.256 20.4437 128.747 20.1002Z" fill="#F3FE51"/>
<path d="M128.012 9.94228C126.495 8.21821 129.084 5.54007 130.728 7.46617C132.28 9.28453 129.53 11.6686 128.012 9.94228Z" fill="#F3FE51"/>
<path d="M111.865 15.593C114.316 15.51 114.349 19.6675 111.515 19.2163C109.484 18.893 109.769 15.6626 111.865 15.593Z" fill="#F3FE51"/>
<path d="M114.987 40.652C113.23 38.8876 116.035 36.3666 117.609 38.1019C119.177 39.8282 116.653 42.3267 114.987 40.652Z" fill="#F3FE51"/>
<path d="M115.716 20.1005C118.564 19.4427 118.936 23.6901 116.182 23.6025C114.044 23.5352 113.923 20.5135 115.716 20.1005Z" fill="#F3FE51"/>
<path d="M133.261 24.4674C136.349 23.8388 136.242 28.8943 132.962 27.8774C131.499 27.4239 131.633 24.7974 133.261 24.4674Z" fill="#F3FE51"/>
<path d="M133.258 28.8265C135.966 28.2114 136.362 32.3846 133.696 32.4295C131.557 32.4655 131.397 29.2508 133.258 28.8265Z" fill="#F3FE51"/>
<path d="M110.643 36.2881C108.844 34.5505 111.685 31.9487 113.266 33.7379C114.74 35.4058 112.334 37.9201 110.643 36.2881Z" fill="#F3FE51"/>
<path d="M119.331 38.0798C121.061 36.3422 123.666 39.1079 121.869 40.7153C120.161 42.2418 117.71 39.7073 119.331 38.0798Z" fill="#F3FE51"/>
<path d="M117.547 36.2887C115.928 37.9163 113.404 35.4559 114.925 33.7385C116.524 31.9337 119.277 34.5512 117.547 36.2887Z" fill="#F3FE51"/>
<path d="M129.254 11.2038C131.493 10.995 131.84 14.7103 129.546 14.8719C127.046 15.047 126.95 11.4193 129.254 11.2038Z" fill="#F3FE51"/>
<path d="M126.232 20.4576C128.219 22.3568 124.83 25.0237 123.476 22.808C122.323 20.9223 124.81 19.0949 126.232 20.4576Z" fill="#F3FE51"/>
<path d="M123.675 33.7162C125.434 31.9069 128.021 34.7376 126.212 36.3495C124.486 37.8872 122.14 35.2944 123.675 33.7162Z" fill="#F3FE51"/>
<path d="M129.091 37.5528C131.539 37.1981 131.876 40.9784 129.533 41.2097C127.189 41.4409 126.868 37.876 129.091 37.5528Z" fill="#F3FE51"/>
<path d="M126.232 27.5603C124.671 29.0532 122.118 26.7477 123.612 25.0124C125.186 23.1806 128.103 25.7734 126.232 27.5603Z" fill="#F3FE51"/>
<path d="M120.06 20.1008C122.941 19.4363 123.255 23.6903 120.526 23.6028C118.419 23.5354 118.359 20.4936 120.06 20.1008Z" fill="#F3FE51"/>
<path d="M128.018 29.3544C129.798 27.4754 132.378 30.405 130.556 31.9876C128.828 33.4872 126.533 30.9235 128.018 29.3544Z" fill="#F3FE51"/>
<path d="M133.435 33.1882C135.361 32.9076 136.338 35.4825 134.701 36.486C132.119 38.0708 130.73 33.5811 133.435 33.1882Z" fill="#F3FE51"/>
<path d="M124.747 37.5504C127.26 37.2451 127.499 41.1018 125.024 41.2028C122.856 41.2904 122.531 37.8198 124.747 37.5504Z" fill="#F3FE51"/>
<path d="M115.89 24.4674C118.37 24.0341 118.758 27.4688 116.818 27.9178C114.178 28.5284 113.629 24.8625 115.89 24.4674Z" fill="#F3FE51"/>
<path d="M111.372 20.1003C114.189 19.4492 114.514 23.6876 111.838 23.6023C109.7 23.5349 109.58 20.5133 111.372 20.1003Z" fill="#F3FE51"/>
<path d="M129.091 33.1885C131.564 32.8271 131.858 36.5917 129.508 36.814C127.329 37.0183 126.812 33.5207 129.091 33.1885Z" fill="#F3FE51"/>
<path d="M120.232 24.467C121.732 24.1572 122.921 25.6096 122.243 26.9925C121.456 28.5998 119.121 28.1868 118.84 26.447C118.698 25.5647 119.355 24.6488 120.234 24.467H120.232Z" fill="#F3FE51"/>
<path d="M128.919 24.4666C131.379 23.9638 131.838 27.4366 130.01 27.9103C127.231 28.6286 126.808 24.8976 128.919 24.4666Z" fill="#F3FE51"/>
<path d="M83.651 6.83546C86.4517 6.49648 86.3202 11.0446 83.4793 10.4587C81.4323 10.0367 81.7712 7.06219 83.651 6.83546Z" fill="#F3FE51"/>
<path d="M79.3093 11.1992C81.9606 10.8782 82.1033 15.3253 79.1086 14.8516C77.2155 14.5531 77.3314 11.4372 79.3093 11.1992Z" fill="#F3FE51"/>
<path d="M83.651 11.1996C86.3669 10.8718 86.3513 15.4154 83.4793 14.8228C81.4345 14.4008 81.8024 11.4218 83.651 11.1996Z" fill="#F3FE51"/>
<path d="M79.4543 15.5886C81.6908 15.4584 82.0365 18.8818 79.9225 19.2185C77.1731 19.6563 77.0237 15.7323 79.4543 15.5886Z" fill="#F3FE51"/>
<path d="M87.9948 6.83548C90.7932 6.4965 90.6706 11.0401 87.8231 10.4587C85.8519 10.0546 86.1573 7.05772 87.9948 6.83548Z" fill="#F3FE51"/>
<path d="M83.4815 33.1905C86.1082 32.6854 86.4717 36.596 84.0702 36.8115C81.8782 37.009 81.2784 33.6148 83.4815 33.1905Z" fill="#F3FE51"/>
<path d="M83.7982 15.5858C86.0905 15.4533 86.3425 18.8857 84.2665 19.2157C81.5014 19.6557 81.4635 15.7205 83.7982 15.5858Z" fill="#F3FE51"/>
<path d="M88.1419 15.5866C90.4521 15.4542 90.7999 19.0213 88.4541 19.2323C85.8519 19.468 85.9009 15.7146 88.1419 15.5866Z" fill="#F3FE51"/>
<path d="M83.3076 20.1005C86.2376 19.4225 86.5944 23.6833 83.7736 23.6025C81.6731 23.5441 81.5995 20.4956 83.3076 20.1005Z" fill="#F3FE51"/>
<path d="M61.7649 6.83834C64.055 6.40508 64.6704 10.1742 62.3759 10.4908C59.9989 10.8208 59.4704 7.2716 61.7649 6.83834Z" fill="#F3FE51"/>
<path d="M82.5783 38.0799C84.1213 36.5286 86.7637 38.6613 85.3656 40.4594C83.798 42.4753 80.8167 39.8488 82.5783 38.0799Z" fill="#F3FE51"/>
<path d="M88.1576 11.2045C90.4922 10.9867 90.7085 14.7132 88.4497 14.8726C85.9366 15.05 85.8251 11.4222 88.1576 11.2045Z" fill="#F3FE51"/>
<path d="M87.8252 28.8268C89.9458 28.4227 90.9358 31.2962 89.1564 32.1829C86.5631 33.4737 85.3411 29.3005 87.8252 28.8268Z" fill="#F3FE51"/>
<path d="M83.4815 28.8261C85.6712 28.4063 86.494 31.3358 84.8127 32.1844C82.2818 33.4617 80.9015 29.3222 83.4815 28.8261Z" fill="#F3FE51"/>
<path d="M75.1128 15.593C77.5635 15.51 77.5969 19.6675 74.7628 19.2163C72.7314 18.893 73.0168 15.6626 75.1128 15.593Z" fill="#F3FE51"/>
<path d="M57.4232 6.83743C59.2851 6.48498 60.3443 9.15863 58.6251 10.2384C56.2548 11.7313 54.6381 7.36498 57.4232 6.83743Z" fill="#F3FE51"/>
<path d="M87.6513 20.1002C90.3494 19.4761 90.7932 22.9983 88.8755 23.5079C86.0726 24.2532 85.805 20.5267 87.6513 20.1002Z" fill="#F3FE51"/>
<path d="M57.5861 11.204C59.8427 10.993 60.2507 14.7015 57.8782 14.8721C55.5524 15.0382 55.1867 11.4285 57.5861 11.204Z" fill="#F3FE51"/>
<path d="M66.2715 11.2064C68.5594 11.0021 68.954 14.7017 66.5659 14.8723C64.1777 15.0429 63.9948 11.4107 66.2715 11.2064Z" fill="#F3FE51"/>
<path d="M57.7421 15.5862C59.9898 15.5481 60.1415 19.2409 57.7131 19.2409C55.2848 19.2409 55.374 15.6266 57.7421 15.5862Z" fill="#F3FE51"/>
<path d="M66.4296 15.5863C68.5346 15.5437 68.8178 18.911 66.8912 19.2163C64.086 19.6586 63.9255 15.638 66.4296 15.5863Z" fill="#F3FE51"/>
<path d="M69.5494 16.0932C71.389 14.3579 73.7906 17.4266 71.9175 18.8925C70.1648 20.2642 67.8591 17.6893 69.5494 16.0932Z" fill="#F3FE51"/>
<path d="M61.4303 20.1074C64.7216 19.2566 64.6123 24.5658 61.3523 23.459C59.8493 22.9495 60.0433 20.4666 61.4303 20.1074Z" fill="#F3FE51"/>
<path d="M86.9221 33.7158C88.5031 32.0883 91.0919 34.3152 89.7072 36.0954C88.1619 38.0821 85.2319 35.4533 86.9221 33.7158Z" fill="#F3FE51"/>
<path d="M83.4793 24.4673C86.1952 23.9084 86.6011 28.2881 83.6041 27.9581C81.7021 27.7493 81.5304 24.8692 83.4793 24.4673Z" fill="#F3FE51"/>
<path d="M87.823 24.467C90.2402 23.9687 90.8088 27.4191 88.9134 27.9107C86.184 28.6201 85.5842 24.9272 87.823 24.467Z" fill="#F3FE51"/>
<path d="M87.9946 37.5497C89.9167 37.3163 90.938 39.9517 89.1519 40.9081C86.5006 42.3268 85.3322 37.8707 87.9946 37.5497Z" fill="#F3FE51"/>
<path d="M57.4234 37.5524C60.2731 37.1371 60.0122 41.8401 57.2918 41.1375C55.3674 40.6391 55.577 37.8218 57.4234 37.5524Z" fill="#F3FE51"/>
<path d="M62.0859 15.5863C64.2645 15.5481 64.4428 19.0052 62.3958 19.2364C59.7713 19.5305 59.5884 15.6311 62.0859 15.5863Z" fill="#F3FE51"/>
<path d="M61.9299 11.204C64.1865 10.993 64.5945 14.7015 62.222 14.8721C59.8494 15.0427 59.642 11.4195 61.9299 11.204Z" fill="#F3FE51"/>
<path d="M61.7649 37.5504C63.6625 37.1912 64.6749 39.9681 62.9624 40.9447C60.534 42.3298 59.0133 38.0712 61.7649 37.5504Z" fill="#F3FE51"/>
<path d="M57.2493 28.827C59.6955 28.2702 60.4046 32.0798 57.974 32.412C55.6015 32.7353 55.2737 29.2782 57.2493 28.827Z" fill="#F3FE51"/>
<path d="M70.2786 20.1002C73.4204 19.3751 73.2197 24.4754 70.1515 23.5124C68.5482 23.0095 68.6619 20.4728 70.2786 20.1002Z" fill="#F3FE51"/>
<path d="M74.6222 20.1003C77.4385 19.4492 77.7641 23.6876 75.0882 23.6023C72.9498 23.5349 72.8294 20.5133 74.6222 20.1003Z" fill="#F3FE51"/>
<path d="M61.7649 28.8292C64.3336 28.4049 64.5254 32.2975 62.1997 32.4322C59.9743 32.5602 59.564 29.1929 61.7649 28.8292Z" fill="#F3FE51"/>
<path d="M57.4234 33.1884C59.8428 32.836 60.2999 36.5827 57.8404 36.8139C55.6261 37.0204 55.2091 33.5117 57.4234 33.1884Z" fill="#F3FE51"/>
<path d="M57.0867 20.1076C60.3914 19.2546 60.1349 24.5794 56.9708 23.4974C55.5771 23.0192 55.6618 20.4758 57.0867 20.1076Z" fill="#F3FE51"/>
<path d="M63.4261 33.7113C64.8777 35.2872 62.6077 37.8867 60.884 36.3512C58.9864 34.6586 61.7871 31.9311 63.4261 33.7113Z" fill="#F3FE51"/>
<path d="M61.5908 24.4627C64.0481 23.9037 64.5565 27.3361 62.8173 27.8771C60.021 28.7437 59.497 24.9386 61.5908 24.4627Z" fill="#F3FE51"/>
<path d="M57.2494 24.4628C60.1928 23.7938 60.2887 28.7415 57.0866 27.9109C55.4789 27.4934 55.6461 24.8287 57.2494 24.4628Z" fill="#F3FE51"/>
</svg>
