<svg width="147" height="48" viewBox="0 0 147 48" fill="none" xmlns="http://www.w3.org/2000/svg">
<path d="M4.0053 26.6106V21.4069C2.4823 21.5843 1.01728 21.3441 0.660507 19.6492C1.06411 14.9372 0.125341 9.33174 0.682806 4.72749C1.02397 1.91017 3.46121 0.437529 6.08575 0.253449C17.4982 -0.552462 29.8382 0.877525 41.3487 0.253449C44.4705 0.489161 46.4105 2.21772 46.7695 5.38075L46.7807 42.309C46.5577 45.5169 44.7203 47.4835 41.5093 47.7528L6.09021 47.7618C3.49243 47.6832 1.01282 45.9973 0.685035 43.29C0.13426 38.7329 1.06411 33.1948 0.658277 28.5322C0.823287 26.7363 2.47115 26.4108 4.00752 26.6106H4.0053ZM11.4129 9.93561C13.1366 11.7562 15.7723 9.01746 13.9482 7.30461C12.1956 5.66136 9.96571 8.40909 11.4129 9.93561ZM16.8292 6.83768C14.0976 7.23502 15.5961 11.7697 18.0311 10.2387C19.7147 9.17909 18.7491 6.55931 16.8292 6.83768ZM12.6482 11.204C10.3448 11.4195 10.4384 15.0472 12.9403 14.8721C15.2371 14.7105 14.887 10.9952 12.6482 11.204ZM16.992 11.204C14.664 11.424 14.8446 15.0427 17.2841 14.8721C19.5541 14.7127 19.2843 10.9885 16.992 11.204ZM12.6304 15.586C10.6391 15.7005 10.3693 18.7917 12.3115 19.1868C15.0832 19.7525 15.2683 15.4333 12.6304 15.586ZM16.9742 15.586C14.7465 15.7162 14.7354 19.4112 17.2819 19.2361C19.6009 19.0768 19.2798 15.4535 16.9742 15.586ZM12.142 20.1004C10.3403 20.5157 10.5522 24.2579 13.3662 23.5081C15.2839 22.9986 14.8402 19.4786 12.142 20.1004ZM16.4858 20.1004C14.9851 20.4461 14.9673 23.0098 16.3766 23.4969C19.4827 24.57 19.8685 19.3237 16.4858 20.1004ZM12.3137 24.4667C10.2021 24.8977 10.6257 28.6287 13.4042 27.9104C15.2326 27.4367 14.7755 23.9639 12.3137 24.4667ZM16.6575 24.4667C14.9717 24.8102 14.916 27.43 16.3587 27.8767C19.6277 28.8914 19.6366 23.8583 16.6575 24.4667ZM12.3137 28.8308C10.3069 29.2393 10.6904 32.4675 12.7463 32.4315C15.3352 32.3866 14.9851 28.2852 12.3137 28.8308ZM16.6531 28.8263C14.7889 29.2505 14.9517 32.4675 17.0901 32.4293C19.728 32.3844 19.2642 28.2314 16.6531 28.8263ZM12.4854 33.1881C10.2043 33.5203 10.7239 37.0178 12.9024 36.8135C15.2527 36.5935 14.9584 32.8266 12.4854 33.1881ZM16.8292 33.1881C14.615 33.5113 15.0297 37.0201 17.2462 36.8135C19.7057 36.5823 19.2486 32.8356 16.8292 33.1881ZM21.173 33.1881C18.9587 33.5113 19.3735 37.0201 21.59 36.8135C24.0495 36.5823 23.5924 32.8356 21.173 33.1881ZM27.1735 33.7111C25.5324 31.9309 22.7339 34.6585 24.6315 36.3511C26.3975 37.927 28.6096 35.2691 27.1735 33.7111ZM29.856 33.1903C27.6128 33.6281 28.1301 36.9235 30.273 36.8068C32.6746 36.6789 32.3936 32.6942 29.856 33.1903ZM35.8566 36.2882C37.6672 34.553 34.7907 31.886 33.1451 33.8166C31.7068 35.5048 34.182 37.8911 35.8566 36.2882ZM12.4854 37.5521C10.26 37.8754 10.6971 41.4313 12.927 41.209C15.1568 40.9868 14.9673 37.1929 12.4854 37.5521ZM16.8292 37.5521C14.1311 37.9472 15.5181 42.52 18.0935 40.8476C19.7303 39.7858 18.7023 37.2782 16.8292 37.5521ZM21.1707 37.5499C18.4191 38.0707 19.9376 42.3315 22.3682 40.9441C24.0829 39.9654 23.0684 37.1907 21.1707 37.5499ZM25.5145 37.5499C22.7629 38.0707 24.2814 42.3315 26.7119 40.9441C28.4267 39.9654 27.4121 37.1907 25.5145 37.5499ZM31.5106 38.0797C29.8048 36.3489 27.1378 39.0719 28.973 40.7129C30.8082 42.3539 32.9466 39.5388 31.5106 38.0797ZM34.3693 37.5499C32.0547 37.8103 32.3468 41.2876 34.6436 41.2023C37.1209 41.108 36.8533 37.2693 34.3693 37.5499Z" fill="#F3FE51"/>
<path d="M142.995 21.4071V26.6107C144.518 26.4334 145.983 26.6736 146.339 28.3685C145.936 33.0805 146.875 38.6859 146.317 43.2902C145.963 46.2265 143.443 47.5869 140.747 47.7642C129.341 48.5118 117.139 47.1828 105.651 47.7642C102.561 47.5308 100.574 45.7798 100.23 42.6369L100.219 5.70867C100.442 2.50074 102.28 0.534224 105.491 0.264839L141.077 0.255859C143.599 0.377083 145.998 2.10564 146.315 4.72766C146.866 9.28476 145.936 14.8229 146.342 19.4855C146.177 21.2814 144.529 21.6069 142.992 21.4071H142.995ZM115.487 7.36539C113.567 9.29374 117.052 11.9539 118.303 9.60802C119.38 7.58763 116.916 5.93091 115.487 7.36539ZM120.903 6.8356C119.024 7.06233 118.685 10.039 120.732 10.4588C123.532 11.0358 123.642 6.50336 120.903 6.8356ZM125.247 6.8356C123.408 7.05784 123.104 10.057 125.075 10.4588C127.923 11.0403 127.963 6.50785 125.247 6.8356ZM128.512 9.94251C130.03 11.6688 132.777 9.28476 131.228 7.46641C129.584 5.5403 126.995 8.21845 128.512 9.94251ZM135.587 9.93578C137.166 8.26783 134.456 5.43704 132.802 7.55845C131.444 9.29823 133.97 11.6419 135.587 9.93578ZM111.143 11.7294C109.524 13.3525 111.757 15.9072 113.511 14.5288C115.471 12.9888 112.927 9.94027 111.143 11.7294ZM118.047 11.7294C116.305 9.98067 113.643 12.926 115.679 14.5288C117.465 15.9363 119.592 13.2829 118.047 11.7294ZM120.903 11.1996C119.053 11.4241 118.687 14.4031 120.732 14.8229C123.575 15.4088 123.593 10.8741 120.903 11.1996ZM125.414 11.2086C123.472 11.3141 123.017 14.2751 124.946 14.7825C127.812 15.5345 128.055 11.0672 125.414 11.2086ZM129.754 11.2041C127.45 11.4196 127.544 15.0474 130.046 14.8723C132.343 14.7106 131.992 10.9954 129.754 11.2041ZM132.855 14.3066C134.323 15.9745 137.132 13.8306 135.645 11.9225C134.158 10.0143 131.257 12.4904 132.855 14.3066ZM112.365 15.5929C110.269 15.6647 109.986 18.8928 112.015 19.2161C114.849 19.6673 114.816 15.5098 112.365 15.5929ZM116.709 15.5929C114.299 15.6737 114.399 19.6561 117.173 19.2161C119.204 18.8951 118.908 15.5188 116.709 15.5929ZM111.872 20.1006C110.08 20.5159 110.2 23.5353 112.339 23.6026C115.017 23.6879 114.691 19.4473 111.872 20.1006ZM116.216 20.1006C114.423 20.5159 114.544 23.5353 116.682 23.6026C119.436 23.6901 119.064 19.4406 116.216 20.1006ZM120.56 20.1006C118.859 20.4934 118.919 23.5375 121.026 23.6026C123.755 23.6879 123.443 19.4339 120.56 20.1006ZM126.732 20.4575C125.307 19.0971 122.823 20.9222 123.976 22.8079C125.33 25.0236 128.719 22.3567 126.732 20.4575ZM129.248 20.1006C127.756 20.4463 127.713 23.0773 129.12 23.5128C132.334 24.5095 132.545 19.3396 129.248 20.1006ZM116.39 24.4669C114.129 24.862 114.678 28.5279 117.318 27.9173C119.258 27.4683 118.87 24.0336 116.39 24.4669ZM120.732 24.4669C119.853 24.6487 119.198 25.5646 119.338 26.4469C119.619 28.1866 121.954 28.5997 122.741 26.9924C123.419 25.6095 122.23 24.1571 120.729 24.4669H120.732ZM126.732 27.5603C128.603 25.7734 125.686 23.1806 124.112 25.0124C122.618 26.7499 125.171 29.0532 126.732 27.5603ZM129.419 24.4669C127.308 24.8979 127.731 28.6289 130.51 27.9105C132.338 27.4369 131.881 23.964 129.419 24.4669ZM133.761 24.4669C132.133 24.7991 131.999 27.4234 133.462 27.8768C136.742 28.8938 136.849 23.8361 133.761 24.4669ZM128.518 29.354C127.033 30.9231 129.326 33.4868 131.056 31.9872C132.878 30.4068 130.298 27.475 128.518 29.354ZM133.759 28.8264C131.894 29.2507 132.057 32.4654 134.196 32.4295C136.863 32.3846 136.468 28.2091 133.759 28.8264ZM111.143 36.2884C112.834 37.9204 115.24 35.4062 113.766 33.7382C112.185 31.9491 109.344 34.5509 111.143 36.2884ZM118.047 36.2884C119.777 34.5509 117.023 31.9333 115.425 33.7382C113.904 35.4556 116.428 37.9159 118.047 36.2884ZM120.734 33.1905C118.529 33.6193 119.151 36.9192 121.18 36.8362C123.771 36.7329 123.298 32.6899 120.734 33.1905ZM124.175 33.7158C122.64 35.2939 124.989 37.889 126.712 36.349C128.521 34.7372 125.934 31.9042 124.175 33.7158ZM129.591 33.1882C127.31 33.5205 127.829 37.018 130.008 36.8137C132.358 36.5937 132.064 32.8268 129.591 33.1882ZM133.935 33.1882C131.23 33.5833 132.621 38.0731 135.201 36.486C136.836 35.4825 135.859 32.9054 133.935 33.1882ZM113.703 40.6525C115.353 38.9935 112.925 36.4433 111.166 38.017C109.406 39.5906 111.98 42.3855 113.703 40.6525ZM115.487 40.6525C117.153 42.3249 119.677 39.8286 118.109 38.1023C116.535 36.367 113.73 38.888 115.487 40.6525ZM119.831 38.0798C118.212 39.7074 120.66 42.2418 122.368 40.7153C124.166 39.108 121.559 36.3423 119.831 38.0798ZM125.247 37.55C123.031 37.8194 123.354 41.2878 125.524 41.2024C127.999 41.1037 127.76 37.247 125.247 37.55ZM129.591 37.5523C127.368 37.8755 127.8 41.4314 130.032 41.2092C132.376 40.9757 132.039 37.1976 129.591 37.5523Z" fill="#F3FE51"/>
<path d="M55.4237 0.310028L91.1304 0.253906C94.0716 0.473904 96.2747 2.14858 96.5601 5.20611V42.8123C96.2747 45.8788 94.0649 47.5423 91.1304 47.7645H55.8696C52.9285 47.5445 50.7254 45.8698 50.4399 42.8123L50.4466 5.04672C50.7677 2.31246 52.7568 0.601862 55.4214 0.312273L55.4237 0.310028ZM57.9233 6.83814C55.1382 7.36568 56.7549 11.732 59.1252 10.2391C60.8422 9.1571 59.783 6.48569 57.9233 6.83814ZM62.2649 6.83814C59.9704 7.27364 60.4988 10.8206 62.8759 10.4906C65.1682 10.1718 64.5549 6.40263 62.2649 6.83814ZM84.1509 6.83589C82.2712 7.06262 81.9322 10.0371 83.9792 10.4591C86.8223 11.045 86.9539 6.49691 84.1509 6.83589ZM88.4947 6.83589C86.6551 7.05813 86.3496 10.0573 88.323 10.4591C91.1705 11.0405 91.2932 6.49691 88.4947 6.83589ZM58.0861 11.2044C55.6868 11.4289 56.0525 15.0387 58.3782 14.8726C60.7508 14.7019 60.3427 10.9934 58.0861 11.2044ZM62.4299 11.2044C60.1421 11.4177 60.3383 15.0432 62.722 14.8726C65.1057 14.7019 64.6865 10.9934 62.4299 11.2044ZM66.7714 11.2067C64.4925 11.411 64.6754 15.0409 67.0658 14.8726C69.4562 14.7042 69.0593 11.0024 66.7714 11.2067ZM79.8094 11.1999C77.8315 11.4379 77.7156 14.5538 79.6087 14.8524C82.6034 15.326 82.4607 10.8789 79.8094 11.1999ZM84.1509 11.1999C82.3002 11.4244 81.9345 14.4011 83.9792 14.8232C86.8535 15.4158 86.8691 10.8699 84.1509 11.1999ZM88.6575 11.2044C86.3251 11.4222 86.4366 15.0477 88.9496 14.8726C91.2085 14.7132 90.9922 10.9867 88.6575 11.2044ZM58.2422 15.5864C55.8741 15.6268 55.834 19.2411 58.2132 19.2411C60.5925 19.2411 60.4899 15.546 58.2422 15.5864ZM62.586 15.5864C60.0885 15.6291 60.2714 19.5284 62.8959 19.2366C64.9452 19.0076 64.7668 15.5505 62.586 15.5864ZM66.9297 15.5864C64.4256 15.6381 64.5862 19.6586 67.3913 19.2164C69.3179 18.9133 69.0347 15.5438 66.9297 15.5864ZM70.0493 16.0938C68.3591 17.6899 70.6625 20.2625 72.4174 18.8931C74.2905 17.4272 71.889 14.3585 70.0493 16.0938ZM75.6128 15.5932C73.5168 15.665 73.2336 18.8931 75.2627 19.2164C78.0969 19.6676 78.0634 15.5101 75.6128 15.5932ZM79.9544 15.5887C77.5238 15.7301 77.6732 19.6542 80.4226 19.2186C82.5388 18.8819 82.1909 15.4585 79.9544 15.5887ZM84.2981 15.5864C81.9635 15.7211 82.0014 19.6564 84.7664 19.2164C86.8424 18.8864 86.5904 15.454 84.2981 15.5864ZM88.6419 15.5864C86.4009 15.7166 86.3518 19.4678 88.9541 19.2321C91.3021 19.0188 90.952 15.4517 88.6419 15.5864ZM57.5866 20.1076C56.1618 20.4758 56.0748 23.0192 57.4707 23.4974C60.6349 24.5794 60.8913 19.2546 57.5866 20.1076ZM61.9304 20.1076C60.5412 20.4668 60.3494 22.9496 61.8524 23.4592C65.1146 24.5659 65.2239 19.2568 61.9304 20.1076ZM70.7785 20.1009C69.1618 20.4735 69.0481 23.0125 70.6514 23.5131C73.7219 24.4761 73.9204 19.3735 70.7785 20.1009ZM75.1222 20.1009C73.3294 20.5162 73.4499 23.5355 75.5883 23.6029C78.2663 23.6882 77.9408 19.4476 75.1222 20.1009ZM83.8075 20.1009C82.0995 20.496 82.1731 23.5445 84.2736 23.6029C87.0966 23.6815 86.7376 19.4207 83.8075 20.1009ZM88.1513 20.1009C86.3028 20.5274 86.5703 24.2539 89.3755 23.5086C91.2932 22.9968 90.8494 19.4768 88.1513 20.1009ZM57.7494 24.4627C56.1461 24.8286 55.9789 27.491 57.5866 27.9108C60.7865 28.7414 60.6928 23.7937 57.7494 24.4627ZM62.091 24.4627C59.9971 24.9386 60.5211 28.7437 63.3174 27.8771C65.0567 27.3384 64.5483 23.9037 62.091 24.4627ZM83.9792 24.4672C82.0303 24.869 82.202 27.7469 84.1041 27.958C87.101 28.288 86.6952 23.9082 83.9792 24.4672ZM88.323 24.4672C86.0842 24.9274 86.6841 28.6202 89.4134 27.9108C91.311 27.4192 90.7402 23.9688 88.323 24.4672ZM57.7494 28.8267C55.7738 29.2757 56.1015 32.7351 58.4741 32.4118C60.9047 32.0796 60.1956 28.27 57.7494 28.8267ZM62.2649 28.829C60.0662 29.1926 60.4743 32.56 62.6997 32.432C65.0254 32.2973 64.8337 28.4047 62.2649 28.829ZM83.9815 28.8267C81.4038 29.3228 82.7818 33.4624 85.3127 32.1851C86.9918 31.3365 86.169 28.4069 83.9815 28.8267ZM88.3252 28.8267C85.8412 29.3004 87.0631 33.4736 89.6565 32.1828C91.4381 31.2961 90.4458 28.4226 88.3252 28.8267ZM57.9233 33.1885C55.7091 33.5118 56.1239 37.0205 58.3403 36.814C60.7999 36.5828 60.3427 32.8361 57.9233 33.1885ZM63.9261 33.7116C62.285 31.9314 59.4865 34.6589 61.3841 36.3516C63.1078 37.8893 65.38 35.2875 63.9261 33.7116ZM83.9815 33.1908C81.7784 33.6151 82.3782 37.0071 84.5702 36.8118C86.9695 36.5962 86.6082 32.6857 83.9815 33.1908ZM87.4221 33.7161C85.7319 35.4536 88.6619 38.0824 90.2072 36.0956C91.592 34.3177 89.0031 32.0908 87.4221 33.7161ZM57.9233 37.5526C56.0793 37.822 55.8696 40.6393 57.7918 41.1376C60.51 41.8403 60.7731 37.1373 57.9233 37.5526ZM62.2649 37.5503C59.5132 38.0711 61.0318 42.3319 63.4623 40.9446C65.1771 39.9658 64.1625 37.1911 62.2649 37.5503ZM83.0784 38.0801C81.3168 39.8491 84.2981 42.4756 85.8657 40.4597C87.2638 38.6615 84.6214 36.5289 83.0784 38.0801ZM88.4947 37.5503C85.8323 37.8713 87.0007 42.3274 89.652 40.9087C91.4381 39.9523 90.4146 37.3169 88.4947 37.5503Z" fill="#F3FE51"/>
<path d="M34.3693 37.5498C36.8533 37.2692 37.1232 41.108 34.6436 41.2022C32.3468 41.2875 32.0525 37.8125 34.3693 37.5498Z" fill="#1F1F1F"/>
<path d="M35.8567 36.2886C34.1843 37.8914 31.7069 35.5051 33.1452 33.817C34.7908 31.8864 37.6673 34.5533 35.8567 36.2886Z" fill="#1F1F1F"/>
<path d="M11.413 9.93565C9.9658 8.40913 12.1957 5.6614 13.9483 7.30466C15.7746 9.01525 13.1389 11.7562 11.413 9.93565Z" fill="#1F1F1F"/>
<path d="M16.8292 6.83797C18.7491 6.55961 19.7147 9.17714 18.0311 10.239C15.5961 11.77 14.0976 7.23532 16.8292 6.83797Z" fill="#1F1F1F"/>
<path d="M16.9743 15.5866C19.28 15.4541 19.6033 19.0751 17.282 19.2367C14.7333 19.4118 14.7445 15.7168 16.9743 15.5866Z" fill="#1F1F1F"/>
<path d="M12.1422 20.1007C14.8403 19.4789 15.2841 22.9989 13.3664 23.5085C10.5523 24.2582 10.3405 20.516 12.1422 20.1007Z" fill="#1F1F1F"/>
<path d="M16.4859 20.1003C19.8663 19.3236 19.4828 24.5676 16.3766 23.4968C14.9696 23.0119 14.9852 20.446 16.4859 20.1003Z" fill="#1F1F1F"/>
<path d="M12.6483 11.2038C14.8871 10.995 15.2349 14.7103 12.9404 14.8719C10.4407 15.047 10.3448 11.4193 12.6483 11.2038Z" fill="#1F1F1F"/>
<path d="M16.992 11.2043C19.2843 10.9888 19.5519 14.7131 17.2841 14.8724C14.8469 15.0431 14.664 11.4243 16.992 11.2043Z" fill="#1F1F1F"/>
<path d="M16.8292 37.552C18.7 37.2781 19.7302 39.7857 18.0935 40.8475C15.518 42.5199 14.1311 37.9449 16.8292 37.552Z" fill="#1F1F1F"/>
<path d="M12.3137 28.8312C14.9851 28.2857 15.3352 32.3871 12.7463 32.432C10.6904 32.4679 10.3069 29.242 12.3137 28.8312Z" fill="#1F1F1F"/>
<path d="M25.5147 37.5504C27.4123 37.1912 28.4246 39.9681 26.7121 40.9447C24.2838 42.3298 22.763 38.0712 25.5147 37.5504Z" fill="#1F1F1F"/>
<path d="M21.1707 37.5504C23.0683 37.1912 24.0806 39.9681 22.3681 40.9447C19.9398 42.3298 18.419 38.0712 21.1707 37.5504Z" fill="#1F1F1F"/>
<path d="M12.6304 15.586C15.2684 15.4333 15.0833 19.7525 12.3116 19.1868C10.3671 18.7917 10.6392 15.7005 12.6304 15.586Z" fill="#1F1F1F"/>
<path d="M29.8562 33.1902C32.3937 32.6941 32.6747 36.6787 30.2732 36.8067C28.1303 36.9212 27.6129 33.6279 29.8562 33.1902Z" fill="#1F1F1F"/>
<path d="M27.1736 33.7113C28.6074 35.2692 26.3977 37.9271 24.6316 36.3512C22.734 34.6586 25.5347 31.9311 27.1736 33.7113Z" fill="#1F1F1F"/>
<path d="M21.1731 33.1884C23.5925 32.836 24.0496 36.5827 21.5901 36.8139C19.3759 37.0204 18.9589 33.5117 21.1731 33.1884Z" fill="#1F1F1F"/>
<path d="M12.4856 37.5523C14.9674 37.1931 15.2127 40.9825 12.9271 41.2092C10.6415 41.436 10.2602 37.8756 12.4856 37.5523Z" fill="#1F1F1F"/>
<path d="M16.8291 33.1884C19.2485 32.836 19.7057 36.5827 17.2461 36.8139C15.0319 37.0204 14.6149 33.5117 16.8291 33.1884Z" fill="#1F1F1F"/>
<path d="M16.6577 24.4672C19.6367 23.8589 19.6278 28.8919 16.3589 27.8772C14.9161 27.4305 14.9719 24.8107 16.6577 24.4672Z" fill="#1F1F1F"/>
<path d="M12.3139 24.4666C14.7734 23.9638 15.2328 27.4366 13.4043 27.9103C10.6259 28.6286 10.2022 24.8976 12.3139 24.4666Z" fill="#1F1F1F"/>
<path d="M12.4854 33.1885C14.9583 32.8271 15.2527 36.5917 12.9024 36.814C10.7238 37.0183 10.2065 33.5207 12.4854 33.1885Z" fill="#1F1F1F"/>
<path d="M31.5107 38.0802C32.949 39.5394 30.7994 42.3455 28.9731 40.7135C27.1469 39.0815 29.8049 36.3494 31.5107 38.0802Z" fill="#1F1F1F"/>
<path d="M16.6531 28.8269C19.2643 28.232 19.7259 32.385 17.0902 32.4299C14.954 32.4658 14.789 29.2511 16.6531 28.8269Z" fill="#1F1F1F"/>
<path d="M120.903 6.83558C123.642 6.50558 123.532 11.0357 120.732 10.4588C118.685 10.0368 119.024 7.06231 120.903 6.83558Z" fill="#1F1F1F"/>
<path d="M120.904 11.1994C123.593 10.8739 123.575 15.4085 120.732 14.8226C118.689 14.4028 119.053 11.4239 120.904 11.1994Z" fill="#1F1F1F"/>
<path d="M111.143 11.7298C112.927 9.94064 115.474 12.9892 113.511 14.5292C111.754 15.9075 109.525 13.3529 111.143 11.7298Z" fill="#1F1F1F"/>
<path d="M118.047 11.7294C119.592 13.2829 117.465 15.9363 115.679 14.5288C113.643 12.9259 116.308 9.98064 118.047 11.7294Z" fill="#1F1F1F"/>
<path d="M115.487 7.36517C116.916 5.9307 119.378 7.58742 118.303 9.60781C117.052 11.9537 113.567 9.29577 115.487 7.36517Z" fill="#1F1F1F"/>
<path d="M135.587 9.93602C133.971 11.6421 131.444 9.29623 132.802 7.55869C134.457 5.43728 137.166 8.27032 135.587 9.93602Z" fill="#1F1F1F"/>
<path d="M120.734 33.1904C123.298 32.6898 123.771 36.7328 121.18 36.836C119.149 36.9169 118.526 33.6191 120.734 33.1904Z" fill="#1F1F1F"/>
<path d="M116.709 15.593C118.908 15.5189 119.204 18.8952 117.173 19.2162C114.399 19.6562 114.296 15.6738 116.709 15.593Z" fill="#1F1F1F"/>
<path d="M113.703 40.6529C111.977 42.386 109.366 39.627 111.166 38.0175C112.965 36.4079 115.355 38.994 113.703 40.6529Z" fill="#1F1F1F"/>
<path d="M125.247 6.83534C127.963 6.50759 127.923 11.04 125.075 10.4586C123.104 10.0567 123.41 7.05758 125.247 6.83534Z" fill="#1F1F1F"/>
<path d="M125.414 11.2084C128.057 11.0669 127.814 15.5343 124.946 14.7822C123.017 14.2749 123.47 11.3139 125.414 11.2084Z" fill="#1F1F1F"/>
<path d="M132.855 14.3068C131.259 12.4907 134.104 9.94277 135.645 11.9228C137.186 13.9027 134.323 15.977 132.855 14.3068Z" fill="#1F1F1F"/>
<path d="M129.247 20.1002C132.545 19.3392 132.334 24.5092 129.12 23.5124C127.713 23.0769 127.756 20.4437 129.247 20.1002Z" fill="#1F1F1F"/>
<path d="M128.512 9.94228C126.995 8.21821 129.584 5.54007 131.228 7.46617C132.78 9.28453 130.03 11.6686 128.512 9.94228Z" fill="#1F1F1F"/>
<path d="M112.365 15.593C114.816 15.51 114.849 19.6675 112.015 19.2163C109.984 18.893 110.269 15.6626 112.365 15.593Z" fill="#1F1F1F"/>
<path d="M115.487 40.652C113.73 38.8876 116.535 36.3666 118.109 38.1019C119.677 39.8282 117.153 42.3267 115.487 40.652Z" fill="#1F1F1F"/>
<path d="M116.216 20.1005C119.064 19.4427 119.436 23.6901 116.682 23.6025C114.544 23.5352 114.423 20.5135 116.216 20.1005Z" fill="#1F1F1F"/>
<path d="M133.761 24.4674C136.849 23.8388 136.742 28.8943 133.462 27.8774C131.999 27.4239 132.133 24.7974 133.761 24.4674Z" fill="#1F1F1F"/>
<path d="M133.758 28.8265C136.466 28.2114 136.862 32.3846 134.196 32.4295C132.057 32.4655 131.897 29.2508 133.758 28.8265Z" fill="#1F1F1F"/>
<path d="M111.143 36.2881C109.344 34.5505 112.185 31.9487 113.766 33.7379C115.24 35.4058 112.834 37.9201 111.143 36.2881Z" fill="#1F1F1F"/>
<path d="M119.831 38.0798C121.561 36.3422 124.166 39.1079 122.369 40.7153C120.661 42.2418 118.21 39.7073 119.831 38.0798Z" fill="#1F1F1F"/>
<path d="M118.047 36.2887C116.428 37.9163 113.904 35.4559 115.425 33.7385C117.024 31.9337 119.777 34.5512 118.047 36.2887Z" fill="#1F1F1F"/>
<path d="M129.754 11.2038C131.993 10.995 132.34 14.7103 130.046 14.8719C127.546 15.047 127.45 11.4193 129.754 11.2038Z" fill="#1F1F1F"/>
<path d="M126.732 20.4576C128.719 22.3568 125.33 25.0237 123.976 22.808C122.823 20.9223 125.31 19.0949 126.732 20.4576Z" fill="#1F1F1F"/>
<path d="M124.175 33.7162C125.934 31.9069 128.521 34.7376 126.712 36.3495C124.986 37.8872 122.64 35.2944 124.175 33.7162Z" fill="#1F1F1F"/>
<path d="M129.591 37.5528C132.039 37.1981 132.376 40.9784 130.033 41.2097C127.689 41.4409 127.368 37.876 129.591 37.5528Z" fill="#1F1F1F"/>
<path d="M126.732 27.5603C125.171 29.0532 122.618 26.7477 124.112 25.0124C125.686 23.1806 128.603 25.7734 126.732 27.5603Z" fill="#1F1F1F"/>
<path d="M120.56 20.1008C123.441 19.4363 123.755 23.6903 121.026 23.6028C118.919 23.5354 118.859 20.4936 120.56 20.1008Z" fill="#1F1F1F"/>
<path d="M128.518 29.3544C130.298 27.4754 132.878 30.405 131.056 31.9876C129.328 33.4872 127.033 30.9235 128.518 29.3544Z" fill="#1F1F1F"/>
<path d="M133.935 33.1882C135.861 32.9076 136.838 35.4825 135.201 36.486C132.619 38.0708 131.23 33.5811 133.935 33.1882Z" fill="#1F1F1F"/>
<path d="M125.247 37.5504C127.76 37.2451 127.999 41.1018 125.524 41.2028C123.356 41.2904 123.031 37.8198 125.247 37.5504Z" fill="#1F1F1F"/>
<path d="M116.39 24.4674C118.87 24.0341 119.258 27.4688 117.318 27.9178C114.678 28.5284 114.129 24.8625 116.39 24.4674Z" fill="#1F1F1F"/>
<path d="M111.872 20.1003C114.689 19.4492 115.014 23.6876 112.338 23.6023C110.2 23.5349 110.08 20.5133 111.872 20.1003Z" fill="#1F1F1F"/>
<path d="M129.591 33.1885C132.064 32.8271 132.358 36.5917 130.008 36.814C127.829 37.0183 127.312 33.5207 129.591 33.1885Z" fill="#1F1F1F"/>
<path d="M120.732 24.467C122.232 24.1572 123.421 25.6096 122.743 26.9925C121.956 28.5998 119.621 28.1868 119.34 26.447C119.198 25.5647 119.855 24.6488 120.734 24.467H120.732Z" fill="#1F1F1F"/>
<path d="M129.419 24.4666C131.879 23.9638 132.338 27.4366 130.51 27.9103C127.731 28.6286 127.308 24.8976 129.419 24.4666Z" fill="#1F1F1F"/>
<path d="M84.151 6.83546C86.9517 6.49648 86.8202 11.0446 83.9793 10.4587C81.9323 10.0367 82.2712 7.06219 84.151 6.83546Z" fill="#1F1F1F"/>
<path d="M79.8093 11.1992C82.4606 10.8782 82.6033 15.3253 79.6086 14.8516C77.7155 14.5531 77.8314 11.4372 79.8093 11.1992Z" fill="#1F1F1F"/>
<path d="M84.151 11.1996C86.8669 10.8718 86.8513 15.4154 83.9793 14.8228C81.9345 14.4008 82.3024 11.4218 84.151 11.1996Z" fill="#1F1F1F"/>
<path d="M79.9543 15.5886C82.1908 15.4584 82.5365 18.8818 80.4225 19.2185C77.6731 19.6563 77.5237 15.7323 79.9543 15.5886Z" fill="#1F1F1F"/>
<path d="M88.4948 6.83548C91.2932 6.4965 91.1706 11.0401 88.3231 10.4587C86.3519 10.0546 86.6573 7.05772 88.4948 6.83548Z" fill="#1F1F1F"/>
<path d="M83.9815 33.1905C86.6082 32.6854 86.9717 36.596 84.5702 36.8115C82.3782 37.009 81.7784 33.6148 83.9815 33.1905Z" fill="#1F1F1F"/>
<path d="M84.2982 15.5858C86.5905 15.4533 86.8425 18.8857 84.7665 19.2157C82.0014 19.6557 81.9635 15.7205 84.2982 15.5858Z" fill="#1F1F1F"/>
<path d="M88.6419 15.5866C90.9521 15.4542 91.2999 19.0213 88.9541 19.2323C86.3519 19.468 86.4009 15.7146 88.6419 15.5866Z" fill="#1F1F1F"/>
<path d="M83.8076 20.1005C86.7376 19.4225 87.0944 23.6833 84.2736 23.6025C82.1731 23.5441 82.0995 20.4956 83.8076 20.1005Z" fill="#1F1F1F"/>
<path d="M62.2649 6.83834C64.555 6.40508 65.1704 10.1742 62.8759 10.4908C60.4989 10.8208 59.9704 7.2716 62.2649 6.83834Z" fill="#1F1F1F"/>
<path d="M83.0783 38.0799C84.6213 36.5286 87.2637 38.6613 85.8656 40.4594C84.298 42.4753 81.3167 39.8488 83.0783 38.0799Z" fill="#1F1F1F"/>
<path d="M88.6576 11.2045C90.9922 10.9867 91.2085 14.7132 88.9497 14.8726C86.4366 15.05 86.3251 11.4222 88.6576 11.2045Z" fill="#1F1F1F"/>
<path d="M88.3252 28.8268C90.4458 28.4227 91.4358 31.2962 89.6564 32.1829C87.0631 33.4737 85.8411 29.3005 88.3252 28.8268Z" fill="#1F1F1F"/>
<path d="M83.9815 28.8261C86.1712 28.4063 86.994 31.3358 85.3127 32.1844C82.7818 33.4617 81.4015 29.3222 83.9815 28.8261Z" fill="#1F1F1F"/>
<path d="M75.6128 15.593C78.0635 15.51 78.0969 19.6675 75.2628 19.2163C73.2314 18.893 73.5168 15.6626 75.6128 15.593Z" fill="#1F1F1F"/>
<path d="M57.9232 6.83743C59.7851 6.48498 60.8443 9.15863 59.1251 10.2384C56.7548 11.7313 55.1381 7.36498 57.9232 6.83743Z" fill="#1F1F1F"/>
<path d="M88.1513 20.1002C90.8494 19.4761 91.2932 22.9983 89.3755 23.5079C86.5726 24.2532 86.305 20.5267 88.1513 20.1002Z" fill="#1F1F1F"/>
<path d="M58.0861 11.204C60.3427 10.993 60.7507 14.7015 58.3782 14.8721C56.0524 15.0382 55.6867 11.4285 58.0861 11.204Z" fill="#1F1F1F"/>
<path d="M66.7715 11.2064C69.0594 11.0021 69.454 14.7017 67.0659 14.8723C64.6777 15.0429 64.4948 11.4107 66.7715 11.2064Z" fill="#1F1F1F"/>
<path d="M58.2421 15.5862C60.4898 15.5481 60.6415 19.2409 58.2131 19.2409C55.7848 19.2409 55.874 15.6266 58.2421 15.5862Z" fill="#1F1F1F"/>
<path d="M66.9296 15.5863C69.0346 15.5437 69.3178 18.911 67.3912 19.2163C64.586 19.6586 64.4255 15.638 66.9296 15.5863Z" fill="#1F1F1F"/>
<path d="M70.0494 16.0932C71.889 14.3579 74.2906 17.4266 72.4175 18.8925C70.6648 20.2642 68.3591 17.6893 70.0494 16.0932Z" fill="#1F1F1F"/>
<path d="M61.9303 20.1074C65.2216 19.2566 65.1123 24.5658 61.8523 23.459C60.3493 22.9495 60.5433 20.4666 61.9303 20.1074Z" fill="#1F1F1F"/>
<path d="M87.4221 33.7158C89.0031 32.0883 91.5919 34.3152 90.2072 36.0954C88.6619 38.0821 85.7319 35.4533 87.4221 33.7158Z" fill="#1F1F1F"/>
<path d="M83.9793 24.4673C86.6952 23.9084 87.1011 28.2881 84.1041 27.9581C82.2021 27.7493 82.0304 24.8692 83.9793 24.4673Z" fill="#1F1F1F"/>
<path d="M88.323 24.467C90.7402 23.9687 91.3088 27.4191 89.4134 27.9107C86.684 28.6201 86.0842 24.9272 88.323 24.467Z" fill="#1F1F1F"/>
<path d="M88.4946 37.5497C90.4167 37.3163 91.438 39.9517 89.6519 40.9081C87.0006 42.3268 85.8322 37.8707 88.4946 37.5497Z" fill="#1F1F1F"/>
<path d="M57.9234 37.5524C60.7731 37.1371 60.5122 41.8401 57.7918 41.1375C55.8674 40.6391 56.077 37.8218 57.9234 37.5524Z" fill="#1F1F1F"/>
<path d="M62.5859 15.5863C64.7645 15.5481 64.9428 19.0052 62.8958 19.2364C60.2713 19.5305 60.0884 15.6311 62.5859 15.5863Z" fill="#1F1F1F"/>
<path d="M62.4299 11.204C64.6865 10.993 65.0945 14.7015 62.722 14.8721C60.3494 15.0427 60.142 11.4195 62.4299 11.204Z" fill="#1F1F1F"/>
<path d="M62.2649 37.5504C64.1625 37.1912 65.1749 39.9681 63.4624 40.9447C61.034 42.3298 59.5133 38.0712 62.2649 37.5504Z" fill="#1F1F1F"/>
<path d="M57.7493 28.827C60.1955 28.2702 60.9046 32.0798 58.474 32.412C56.1015 32.7353 55.7737 29.2782 57.7493 28.827Z" fill="#1F1F1F"/>
<path d="M70.7786 20.1002C73.9204 19.3751 73.7197 24.4754 70.6515 23.5124C69.0482 23.0095 69.1619 20.4728 70.7786 20.1002Z" fill="#1F1F1F"/>
<path d="M75.1222 20.1003C77.9385 19.4492 78.2641 23.6876 75.5882 23.6023C73.4498 23.5349 73.3294 20.5133 75.1222 20.1003Z" fill="#1F1F1F"/>
<path d="M62.2649 28.8292C64.8336 28.4049 65.0254 32.2975 62.6997 32.4322C60.4743 32.5602 60.064 29.1929 62.2649 28.8292Z" fill="#1F1F1F"/>
<path d="M57.9234 33.1884C60.3428 32.836 60.7999 36.5827 58.3404 36.8139C56.1261 37.0204 55.7091 33.5117 57.9234 33.1884Z" fill="#1F1F1F"/>
<path d="M57.5867 20.1076C60.8914 19.2546 60.6349 24.5794 57.4708 23.4974C56.0771 23.0192 56.1618 20.4758 57.5867 20.1076Z" fill="#1F1F1F"/>
<path d="M63.9261 33.7113C65.3777 35.2872 63.1077 37.8867 61.384 36.3512C59.4864 34.6586 62.2871 31.9311 63.9261 33.7113Z" fill="#1F1F1F"/>
<path d="M62.0908 24.4627C64.5481 23.9037 65.0565 27.3361 63.3173 27.8771C60.521 28.7437 59.997 24.9386 62.0908 24.4627Z" fill="#1F1F1F"/>
<path d="M57.7494 24.4628C60.6928 23.7938 60.7887 28.7415 57.5866 27.9109C55.9789 27.4934 56.1461 24.8287 57.7494 24.4628Z" fill="#1F1F1F"/>
</svg>
